<svg xmlns="http://www.w3.org/2000/svg" width="1560" height="880" viewBox="0 0 1560 880">
<defs>
<marker id="ar" viewBox="0 0 10 10" refX="8.5" refY="5" markerWidth="7" markerHeight="7" orient="auto-start-reverse"><path d="M 0 0 L 10 5 L 0 10 z" fill="#334155"/></marker>
<marker id="arB" viewBox="0 0 10 10" refX="8.5" refY="5" markerWidth="7" markerHeight="7" orient="auto-start-reverse"><path d="M 0 0 L 10 5 L 0 10 z" fill="#326CE5"/></marker>
<marker id="arThin" viewBox="0 0 10 10" refX="8.5" refY="5" markerWidth="7" markerHeight="7" orient="auto-start-reverse"><path d="M 0 0 L 10 5 L 0 10 z" fill="#8A97A6"/></marker>
<marker id="arG" viewBox="0 0 10 10" refX="8.5" refY="5" markerWidth="7" markerHeight="7" orient="auto-start-reverse"><path d="M 0 0 L 10 5 L 0 10 z" fill="#0E9F6E"/></marker>
</defs>
<rect x="0" y="0" width="1560" height="880" rx="0" ry="0" fill="#F4F7FB" stroke="none" stroke-width="2" opacity="1"/>
<text x="48" y="58" font-family="Helvetica, Arial, sans-serif" font-size="30" font-weight="700" fill="#0F1E2E" text-anchor="start">NGINX Ingress Controller — Architecture</text>
<text x="48" y="90" font-family="Helvetica, Arial, sans-serif" font-size="16" font-weight="400" fill="#5B6B7B" text-anchor="start">One cloud LB → one controller → host/path routing to Services · TLS terminates in-cluster</text>
<rect x="946" y="130" width="570" height="120" rx="14" ry="14" fill="#EEF4FF" stroke="#C9D6EA" stroke-width="1.6" stroke-dasharray="2,7" opacity="1"/>
<text x="968" y="158" font-family="Helvetica, Arial, sans-serif" font-size="12.5" font-weight="700" fill="#4A6A85" text-anchor="start">CONTROL PLANE</text>
<rect x="968" y="176" width="210" height="58" rx="10" ry="10" fill="#fff" stroke="#C9D6EA" stroke-width="1.5" opacity="1"/>
<circle cx="999" cy="205" r="14" fill="#fff" stroke="#E3E9F0" stroke-width="1.5"/>
<g transform="translate(989.50,195.50) scale(0.7917)" fill="#326CE5"><path d="M10.204 14.35l.007.01-.999 2.413a5.171 5.171 0 0 1-2.075-2.597l2.578-.437.004.005a.44.44 0 0 1 .484.606zm-.833-2.129a.44.44 0 0 0 .173-.756l.002-.011L7.585 9.7a5.143 5.143 0 0 0-.73 3.255l2.514-.725.002-.009zm1.145-1.98a.44.44 0 0 0 .699-.337l.01-.005.15-2.62a5.144 5.144 0 0 0-3.01 1.442l2.147 1.523.004-.002zm.76 2.75l.723.349.722-.347.18-.78-.5-.623h-.804l-.5.623.179.779zm1.5-3.095a.44.44 0 0 0 .7.336l.008.003 2.134-1.513a5.188 5.188 0 0 0-2.992-1.442l.148 2.615.002.001zm10.876 5.97l-5.773 7.181a1.6 1.6 0 0 1-1.248.594l-9.261.003a1.6 1.6 0 0 1-1.247-.596l-5.776-7.18a1.583 1.583 0 0 1-.307-1.34L2.1 5.573c.108-.47.425-.864.863-1.073L11.305.513a1.606 1.606 0 0 1 1.385 0l8.345 3.985c.438.209.755.604.863 1.073l2.062 8.955c.108.47-.005.963-.308 1.34zm-3.289-2.057c-.042-.01-.103-.026-.145-.034-.174-.033-.315-.025-.479-.038-.35-.037-.638-.067-.895-.148-.105-.04-.18-.165-.216-.216l-.201-.059a6.45 6.45 0 0 0-.105-2.332 6.465 6.465 0 0 0-.936-2.163c.052-.047.15-.133.177-.159.008-.09.001-.183.094-.282.197-.185.444-.338.743-.522.142-.084.273-.137.415-.242.032-.024.076-.062.11-.089.24-.191.295-.52.123-.736-.172-.216-.506-.236-.745-.045-.034.027-.08.062-.111.088-.134.116-.217.23-.33.35-.246.25-.45.458-.673.609-.097.056-.239.037-.303.033l-.19.135a6.545 6.545 0 0 0-4.146-2.003l-.012-.223c-.065-.062-.143-.115-.163-.25-.022-.268.015-.557.057-.905.023-.163.061-.298.068-.475.001-.04-.001-.099-.001-.142 0-.306-.224-.555-.5-.555-.275 0-.499.249-.499.555l.001.014c0 .041-.002.092 0 .128.006.177.044.312.067.475.042.348.078.637.056.906a.545.545 0 0 1-.162.258l-.012.211a6.424 6.424 0 0 0-4.166 2.003 8.373 8.373 0 0 1-.18-.128c-.09.012-.18.04-.297-.029-.223-.15-.427-.358-.673-.608-.113-.12-.195-.234-.329-.349-.03-.026-.077-.062-.111-.088a.594.594 0 0 0-.348-.132.481.481 0 0 0-.398.176c-.172.216-.117.546.123.737l.007.005.104.083c.142.105.272.159.414.242.299.185.546.338.743.522.076.082.09.226.1.288l.16.143a6.462 6.462 0 0 0-1.02 4.506l-.208.06c-.055.072-.133.184-.215.217-.257.081-.546.11-.895.147-.164.014-.305.006-.48.039-.037.007-.09.02-.133.03l-.004.002-.007.002c-.295.071-.484.342-.423.608.061.267.349.429.645.365l.007-.001.01-.003.129-.029c.17-.046.294-.113.448-.172.33-.118.604-.217.87-.256.112-.009.23.069.288.101l.217-.037a6.5 6.5 0 0 0 2.88 3.596l-.09.218c.033.084.069.199.044.282-.097.252-.263.517-.452.813-.091.136-.185.242-.268.399-.02.037-.045.095-.064.134-.128.275-.034.591.213.71.248.12.556-.007.69-.282v-.002c.02-.039.046-.09.062-.127.07-.162.094-.301.144-.458.132-.332.205-.68.387-.897.05-.06.13-.082.215-.105l.113-.205a6.453 6.453 0 0 0 4.609.012l.106.192c.086.028.18.042.256.155.136.232.229.507.342.84.05.156.074.295.145.457.016.037.043.09.062.129.133.276.442.402.69.282.247-.118.341-.435.213-.71-.02-.039-.045-.096-.065-.134-.083-.156-.177-.261-.268-.398-.19-.296-.346-.541-.443-.793-.04-.13.007-.21.038-.294-.018-.022-.059-.144-.083-.202a6.499 6.499 0 0 0 2.88-3.622c.064.01.176.03.213.038.075-.05.144-.114.28-.104.266.039.54.138.87.256.154.06.277.128.448.173.036.01.088.019.13.028l.009.003.007.001c.297.064.584-.098.645-.365.06-.266-.128-.537-.423-.608zM16.4 9.701l-1.95 1.746v.005a.44.44 0 0 0 .173.757l.003.01 2.526.728a5.199 5.199 0 0 0-.108-1.674A5.208 5.208 0 0 0 16.4 9.7zm-4.013 5.325a.437.437 0 0 0-.404-.232.44.44 0 0 0-.372.233h-.002l-1.268 2.292a5.164 5.164 0 0 0 3.326.003l-1.27-2.296h-.01zm1.888-1.293a.44.44 0 0 0-.27.036.44.44 0 0 0-.214.572l-.003.004 1.01 2.438a5.15 5.15 0 0 0 2.081-2.615l-2.6-.44-.004.005z"/></g>
<text x="1021" y="201" font-family="Helvetica, Arial, sans-serif" font-size="13.5" font-weight="700" fill="#1B2733" text-anchor="start">Kubernetes</text>
<text x="1021" y="219" font-family="Helvetica, Arial, sans-serif" font-size="12" font-weight="400" fill="#5B6B7B" text-anchor="start">API server</text>
<rect x="1232" y="176" width="262" height="58" rx="10" ry="10" fill="#FFF7E6" stroke="#F0C97A" stroke-width="1.5" opacity="1"/>
<text x="1363" y="199" font-family="Helvetica, Arial, sans-serif" font-size="13" font-weight="700" fill="#8A6D1F" text-anchor="middle">Ingress resource (YAML)</text>
<text x="1363" y="217" font-family="Helvetica, Arial, sans-serif" font-size="11.5" font-weight="400" fill="#8A6D1F" text-anchor="middle">rules: host / path → Service</text>
<line x1="1230" y1="205" x2="1182" y2="205" stroke="#C6B48C" stroke-width="2" marker-end="url(#arThin)" stroke-dasharray="6,6" stroke-linecap="round"/>
<circle cx="96" cy="459.5" r="9.0" fill="none" stroke="#33404F" stroke-width="3.3000000000000003"/>
<path d="M 79.5 486.5 a 16.5 16.5 0 0 1 33.0 0" fill="none" stroke="#33404F" stroke-width="3.3000000000000003"/>
<text x="96" y="514" font-family="Helvetica, Arial, sans-serif" font-size="13" font-weight="600" fill="#33404F" text-anchor="middle">User</text>
<text x="96" y="531" font-family="Helvetica, Arial, sans-serif" font-size="13" font-weight="600" fill="#33404F" text-anchor="middle">(Internet)</text>
<line x1="150" y1="470" x2="214" y2="470" stroke="#334155" stroke-width="2.6" marker-end="url(#ar)" stroke-linecap="round"/>
<rect x="216" y="415" width="150" height="110" rx="12" ry="12" fill="#fff" stroke="#E3E9F0" stroke-width="1.6" opacity="1"/>
<circle cx="291" cy="442" r="3.4" fill="#8C4FFF"/>
<line x1="291" y1="442" x2="280" y2="459" stroke="#8C4FFF" stroke-width="2.4"/>
<circle cx="280" cy="460" r="3.2" fill="#8C4FFF"/>
<line x1="291" y1="442" x2="291" y2="459" stroke="#8C4FFF" stroke-width="2.4"/>
<circle cx="291" cy="460" r="3.2" fill="#8C4FFF"/>
<line x1="291" y1="442" x2="302" y2="459" stroke="#8C4FFF" stroke-width="2.4"/>
<circle cx="302" cy="460" r="3.2" fill="#8C4FFF"/>
<text x="291" y="490" font-family="Helvetica, Arial, sans-serif" font-size="13" font-weight="700" fill="#1B2733" text-anchor="middle">AWS NLB</text>
<text x="291" y="507" font-family="Helvetica, Arial, sans-serif" font-size="11.5" font-weight="400" fill="#5B6B7B" text-anchor="middle">layer 4 (L4)</text>
<line x1="366" y1="470" x2="428" y2="470" stroke="#334155" stroke-width="2.6" marker-end="url(#ar)" stroke-linecap="round"/>
<text x="397" y="460" font-family="Helvetica, Arial, sans-serif" font-size="11" font-weight="400" fill="#7A8AA0" text-anchor="middle">TCP :443</text>
<rect x="428" y="268" width="1092" height="430" rx="18" ry="18" fill="#F3F8F3" stroke="#009639" stroke-width="2" opacity="1"/>
<rect x="428" y="268" width="1092" height="40" rx="18" ry="18" fill="#009639" stroke="none" stroke-width="2" opacity="1"/>
<rect x="428" y="288" width="1092" height="20" rx="0" ry="0" fill="#009639" stroke="none" stroke-width="2" opacity="1"/>
<circle cx="454" cy="288" r="13" fill="#fff" stroke="#E3E9F0" stroke-width="1.5"/>
<g transform="translate(445.00,279.00) scale(0.7500)" fill="#009639"><path d="M12 0L1.605 6v12L12 24l10.395-6V6L12 0zm6 16.59c0 .705-.646 1.29-1.529 1.29-.631 0-1.351-.255-1.801-.81l-6-7.141v6.66c0 .721-.57 1.29-1.274 1.29H7.32c-.721 0-1.29-.6-1.29-1.29V7.41c0-.705.63-1.29 1.5-1.29.646 0 1.38.255 1.83.81l5.97 7.141V7.41c0-.721.6-1.29 1.29-1.29h.075c.72 0 1.29.6 1.29 1.29v9.18H18z"/></g>
<text x="474" y="294" font-family="Helvetica, Arial, sans-serif" font-size="15" font-weight="700" fill="#fff" text-anchor="start">Kubernetes cluster</text>
<rect x="470" y="384" width="226" height="172" rx="12" ry="12" fill="#fff" stroke="#009639" stroke-width="2" opacity="1"/>
<circle cx="504" cy="424" r="20" fill="#fff" stroke="#E3E9F0" stroke-width="1.5"/>
<g transform="translate(491.00,411.00) scale(1.0833)" fill="#009639"><path d="M12 0L1.605 6v12L12 24l10.395-6V6L12 0zm6 16.59c0 .705-.646 1.29-1.529 1.29-.631 0-1.351-.255-1.801-.81l-6-7.141v6.66c0 .721-.57 1.29-1.274 1.29H7.32c-.721 0-1.29-.6-1.29-1.29V7.41c0-.705.63-1.29 1.5-1.29.646 0 1.38.255 1.83.81l5.97 7.141V7.41c0-.721.6-1.29 1.29-1.29h.075c.72 0 1.29.6 1.29 1.29v9.18H18z"/></g>
<text x="534" y="418" font-family="Helvetica, Arial, sans-serif" font-size="17" font-weight="700" fill="#1B2733" text-anchor="start">NGINX</text>
<text x="534" y="437" font-family="Helvetica, Arial, sans-serif" font-size="12" font-weight="400" fill="#5B6B7B" text-anchor="start">Ingress Controller</text>
<line x1="486" y1="458" x2="680" y2="458" stroke="#EDF1F6" stroke-width="1.5"/>
<text x="583.0" y="480" font-family="Helvetica, Arial, sans-serif" font-size="11.5" font-weight="middle" fill="#5B6B7B" text-anchor="16">watches Ingress → builds</text>
<text x="583.0" y="497" font-family="Helvetica, Arial, sans-serif" font-size="11.5" font-weight="middle" fill="#5B6B7B" text-anchor="16">nginx.conf, reloads</text>
<rect x="486" y="514" width="194" height="30" rx="8" ry="8" fill="#F1FAF4" stroke="#B7E3C6" stroke-width="1.2" opacity="1"/>
<path d="M 500.4 528.4 v-4.0 a5.6000000000000005 5.6000000000000005 0 0 1 11.200000000000001 0 v4.0" fill="none" stroke="#009639" stroke-width="1.7600000000000002"/>
<rect x="498.8" y="528.4" width="14.4" height="10.4" rx="2.0" fill="#009639"/>
<text x="524" y="534" font-family="Helvetica, Arial, sans-serif" font-size="11.5" font-weight="700" fill="#1B2733" text-anchor="start">TLS termination (HTTPS)</text>
<polyline points="583.0,384 583.0,248 1073,248 1073,234" fill="none" stroke="#4A6A85" stroke-width="1.8" marker-end="url(#arB)" stroke-dasharray="6,6" stroke-linejoin="round" stroke-linecap="round"/>
<text x="792" y="242" font-family="Helvetica, Arial, sans-serif" font-size="11.5" font-weight="600" fill="#4A6A85" text-anchor="middle">controller watches the API for Ingress + Endpoints</text>
<rect x="1124" y="334" width="250" height="134" rx="12" ry="12" fill="#fff" stroke="#E3E9F0" stroke-width="1.6" opacity="1"/>
<rect x="1124" y="334" width="250" height="30" rx="12" ry="12" fill="#EFF7FF" stroke="none" stroke-width="2" opacity="1"/>
<rect x="1124" y="350" width="250" height="14" rx="0" ry="0" fill="#EFF7FF" stroke="none" stroke-width="2" opacity="1"/>
<text x="1138" y="355" font-family="Helvetica, Arial, sans-serif" font-size="11.5" font-weight="700" fill="#4A6A85" text-anchor="start">namespace: app1</text>
<text x="1140" y="388" font-family="Helvetica, Arial, sans-serif" font-size="15" font-weight="700" fill="#1B2733" text-anchor="start">Service A</text>
<text x="1140" y="406" font-family="Helvetica, Arial, sans-serif" font-size="11.5" font-weight="400" fill="#5B6B7B" text-anchor="start">ClusterIP → Pods</text>
<rect x="1144" y="420" width="102" height="34" rx="8" ry="8" fill="#F7FAFF" stroke="#D8E2EE" stroke-width="1.2" opacity="1"/>
<text x="1195" y="442" font-family="Helvetica, Arial, sans-serif" font-size="11" font-weight="600" fill="#5B6B7B" text-anchor="middle">Pod</text>
<rect x="1260" y="420" width="102" height="34" rx="8" ry="8" fill="#F7FAFF" stroke="#D8E2EE" stroke-width="1.2" opacity="1"/>
<text x="1311" y="442" font-family="Helvetica, Arial, sans-serif" font-size="11" font-weight="600" fill="#5B6B7B" text-anchor="middle">Pod</text>
<polyline points="696,470 1092,470 1092,401.0 1120,401.0" fill="none" stroke="#334155" stroke-width="2.6" marker-end="url(#ar)" stroke-linejoin="round" stroke-linecap="round"/>
<text x="1006" y="393.0" font-family="Helvetica, Arial, sans-serif" font-size="11" font-weight="600" fill="#4A6A85" text-anchor="middle">host: a.example.com</text>
<rect x="1124" y="516" width="250" height="134" rx="12" ry="12" fill="#fff" stroke="#E3E9F0" stroke-width="1.6" opacity="1"/>
<rect x="1124" y="516" width="250" height="30" rx="12" ry="12" fill="#F0FBF2" stroke="none" stroke-width="2" opacity="1"/>
<rect x="1124" y="532" width="250" height="14" rx="0" ry="0" fill="#F0FBF2" stroke="none" stroke-width="2" opacity="1"/>
<text x="1138" y="537" font-family="Helvetica, Arial, sans-serif" font-size="11.5" font-weight="700" fill="#3F7A4E" text-anchor="start">namespace: app2</text>
<text x="1140" y="570" font-family="Helvetica, Arial, sans-serif" font-size="15" font-weight="700" fill="#1B2733" text-anchor="start">Service B</text>
<text x="1140" y="588" font-family="Helvetica, Arial, sans-serif" font-size="11.5" font-weight="400" fill="#5B6B7B" text-anchor="start">ClusterIP → Pods</text>
<rect x="1144" y="602" width="102" height="34" rx="8" ry="8" fill="#F7FAFF" stroke="#D8E2EE" stroke-width="1.2" opacity="1"/>
<text x="1195" y="624" font-family="Helvetica, Arial, sans-serif" font-size="11" font-weight="600" fill="#5B6B7B" text-anchor="middle">Pod</text>
<rect x="1260" y="602" width="102" height="34" rx="8" ry="8" fill="#F7FAFF" stroke="#D8E2EE" stroke-width="1.2" opacity="1"/>
<text x="1311" y="624" font-family="Helvetica, Arial, sans-serif" font-size="11" font-weight="600" fill="#5B6B7B" text-anchor="middle">Pod</text>
<polyline points="696,470 1092,470 1092,583.0 1120,583.0" fill="none" stroke="#334155" stroke-width="2.6" marker-end="url(#ar)" stroke-linejoin="round" stroke-linecap="round"/>
<text x="1006" y="575.0" font-family="Helvetica, Arial, sans-serif" font-size="11" font-weight="600" fill="#3F7A4E" text-anchor="middle">host: b.example.com</text>
<text x="974.0" y="732" font-family="Helvetica, Arial, sans-serif" font-size="13" font-weight="600" fill="#5B6B7B" text-anchor="middle">One NLB + one controller for the whole cluster — routing happens inside by host / path.</text>
</svg>