<svg xmlns="http://www.w3.org/2000/svg" width="1760" height="1015" viewBox="0 0 1760 1015">
<defs>
<marker id="arrowDark" viewBox="0 0 10 10" refX="8.5" refY="5" markerWidth="7" markerHeight="7" orient="auto-start-reverse"><path d="M 0 0 L 10 5 L 0 10 z" fill="#334155"/></marker>
<marker id="arrowCI" viewBox="0 0 10 10" refX="8.5" refY="5" markerWidth="7" markerHeight="7" orient="auto-start-reverse"><path d="M 0 0 L 10 5 L 0 10 z" fill="#E8791A"/></marker>
<marker id="arrowThin" viewBox="0 0 10 10" refX="8.5" refY="5" markerWidth="7" markerHeight="7" orient="auto-start-reverse"><path d="M 0 0 L 10 5 L 0 10 z" fill="#7A8AA0"/></marker>
</defs>
<rect x="0" y="0" width="1760" height="1015" rx="0" ry="0" fill="#F4F7FB" stroke="none" stroke-width="2" opacity="1"/>
<text x="48" y="60" font-family="Helvetica, Arial, sans-serif" font-size="31" font-weight="700" fill="#0F1E2E" text-anchor="start">Setup 1 — 3-Tier App on Kubernetes with NGINX Ingress</text>
<text x="48" y="92" font-family="Helvetica, Arial, sans-serif" font-size="17" font-weight="400" fill="#5B6B7B" text-anchor="start">AWS (ap-south-1) · Let’s Encrypt TLS · Jenkins CI/CD · shared MongoDB</text>
<circle cx="1690" cy="62" r="26" fill="#ffffff" stroke="#E3E9F0" stroke-width="1.5"/>
<g transform="translate(1673.00,45.00) scale(1.4167)" fill="#009639"><path d="M12 0L1.605 6v12L12 24l10.395-6V6L12 0zm6 16.59c0 .705-.646 1.29-1.529 1.29-.631 0-1.351-.255-1.801-.81l-6-7.141v6.66c0 .721-.57 1.29-1.274 1.29H7.32c-.721 0-1.29-.6-1.29-1.29V7.41c0-.705.63-1.29 1.5-1.29.646 0 1.38.255 1.83.81l5.97 7.141V7.41c0-.721.6-1.29 1.29-1.29h.075c.72 0 1.29.6 1.29 1.29v9.18H18z"/></g>
<rect x="1170" y="30" width="500" height="66" rx="12" ry="12" fill="#FFFFFF" stroke="#E3E9F0" stroke-width="1.5" opacity="1"/>
<circle cx="1196" cy="54" r="13" fill="#2563EB" stroke="#ffffff" stroke-width="2.5"/>
<circle cx="1196" cy="54" r="13" fill="none" stroke="#1E3A8A" stroke-width="1" opacity="0.4"/>
<text x="1196" y="59.5" font-family="Helvetica, Arial, sans-serif" font-size="17" font-weight="700" fill="#ffffff" text-anchor="middle">#</text>
<text x="1218" y="59" font-family="Helvetica, Arial, sans-serif" font-size="14" font-weight="600" fill="#33404F" text-anchor="start">installation step  (see install.md)</text>
<line x1="1188" y1="80" x2="1228" y2="80" stroke="#334155" stroke-width="3" marker-end="url(#arrowDark)" stroke-linecap="round"/>
<text x="1236" y="85" font-family="Helvetica, Arial, sans-serif" font-size="13.5" font-weight="400" fill="#33404F" text-anchor="start">user traffic</text>
<line x1="1375" y1="80" x2="1415" y2="80" stroke="#E8791A" stroke-width="3" marker-end="url(#arrowCI)" stroke-dasharray="7,6" stroke-linecap="round"/>
<text x="1423" y="85" font-family="Helvetica, Arial, sans-serif" font-size="13.5" font-weight="400" fill="#33404F" text-anchor="start">CI / CD pipeline</text>
<rect x="40" y="120" width="1680" height="208" rx="18" ry="18" fill="#FFF7ED" stroke="#F4C77B" stroke-width="1.6" stroke-dasharray="2,7" opacity="1"/>
<text x="64" y="150" font-family="Helvetica, Arial, sans-serif" font-size="16" font-weight="700" fill="#B4791F" text-anchor="start">CI / CD  —  build once, deploy every batch</text>
<rect x="70" y="168" width="150" height="132" rx="14" ry="14" fill="#FFFFFF" stroke="#E3E9F0" stroke-width="1.6" opacity="1"/>
<circle cx="145" cy="212" r="22" fill="#ffffff" stroke="#E3E9F0" stroke-width="1.5"/>
<g transform="translate(131.00,198.00) scale(1.1667)" fill="#F05032"><path d="M13.09 23.549a1.54 1.54 0 0 1-2.18 0L.451 13.089a1.54 1.54 0 0 1 0-2.179l7.191-7.19 2.733 2.733a1.85 1.85 0 0 0 .964 2.326v6.66a1.849 1.849 0 1 0 1.54 0V8.957l2.508 2.508a1.85 1.85 0 1 0 1.09-1.09l-2.634-2.634a1.85 1.85 0 0 0-2.378-2.377L8.73 2.63 10.91.451a1.54 1.54 0 0 1 2.179 0l10.459 10.46a1.54 1.54 0 0 1 0 2.179z"/></g>
<text x="145" y="258" font-family="Helvetica, Arial, sans-serif" font-size="13.5" font-weight="600" fill="#33404F" text-anchor="middle">Developer</text>
<text x="145" y="275" font-family="Helvetica, Arial, sans-serif" font-size="13.5" font-weight="600" fill="#33404F" text-anchor="middle">git push</text>
<rect x="268" y="158" width="470" height="152" rx="14" ry="14" fill="#FFFFFF" stroke="#E3E9F0" stroke-width="1.6" opacity="1"/>
<circle cx="306" cy="196" r="21" fill="#ffffff" stroke="#E3E9F0" stroke-width="1.5"/>
<g transform="translate(292.50,182.50) scale(1.1250)" fill="#D24939"><path d="M2.872 24h-.975a3.866 3.866 0 01-.07-.197c-.215-.666-.594-1.49-.692-2.154-.146-.984.78-1.039 1.374-1.465.915-.66 1.635-1.025 2.627-1.62.295-.179 1.182-.624 1.281-.829.201-.408-.345-.982-.49-1.3-.225-.507-.345-.937-.376-1.435-.824-.13-1.455-.627-1.844-1.185-.63-.925-1.066-2.635-.525-3.936.045-.103.254-.305.285-.463.06-.308-.105-.72-.12-1.048-.06-1.692.284-3.15 1.425-3.66.463-1.84 2.113-2.453 3.673-3.367.58-.342 1.224-.562 1.89-.807 2.372-.877 6.027-.712 7.994.783.836.633 2.176 1.97 2.656 2.939 1.262 2.555 1.17 6.825.287 9.934-.12.421-.29 1.032-.533 1.533-.168.35-.689 1.05-.625 1.36.064.314 1.19 1.17 1.432 1.395.434.422 1.26.975 1.324 1.5.07.557-.248 1.336-.41 1.875-.217.721-.436 1.441-.654 2.131H2.87zm11.104-3.54c-.545-.3-1.361-.622-2.065-.757-.87-.164-.78 1.188-.75 1.994.03.643.36 1.316.51 1.744.076.197.09.41.256.449.3.068 1.29-.326 1.575-.479.6-.328 1.064-.844 1.574-1.189.016-.17.016-.34.03-.508a2.648 2.648 0 00-1.095-.277c.314-.15.75-.15 1.035-.332l.016-.193c-.496-.03-.69-.254-1.021-.436zm7.454 2.935a17.78 17.78 0 00.465-1.752c.06-.287.215-.918.178-1.176-.059-.459-.684-.799-1.004-1.086-.584-.525-.95-.975-1.56-1.469-.249.375-.78.615-.983.914 1.447-.689 1.71 2.625 1.141 3.69.09.329.391.45.514.735l-.086.166h1.29c.013 0 .03 0 .044.014zm-6.634-.012c-.05-.074-.1-.135-.15-.209l-.301.195h.45zm2.77 0c.008-.209.018-.404.03-.598-.53.029-.825-.48-1.196-.527-.324-.045-.6.361-1.02.195-.095.105-.183.227-.284.316.154.18.295.375.424.584h.815c.014-.164.135-.285.3-.285.165 0 .284.121.284.27h.66zm2.116 0c-.314-.479-.947-.898-1.68-.555l-.03.541h1.71zm-8.51 0l-.104-.344c-.225-.72-.36-1.26-.405-1.68-.914-.436-1.875-.87-2.654-1.426-.15-.105-1.109-1.35-1.23-1.305-1.739.676-3.359 1.86-4.814 2.984.256.557.48 1.141.69 1.74h8.505zm8.265-2.113c-.029-.512-.164-1.56-.48-1.74-.66-.39-1.846.78-2.34.943.045.15.135.271.15.48.285-.074.645-.029.898.092-.299.03-.629.03-.824.164-.074.195.016.48-.029.764.69.197 1.5.303 2.385.332.164-.227.225-.645.211-1.082zm-4.08-.36c-.044.375.046.51.12.943 1.26.391 1.034-1.74-.135-.959zM8.76 19.5c-.45.457 1.27 1.082 1.814 1.115 0-.29.165-.564.135-.77-.65-.118-1.502-.042-1.945-.347zm5.565.215c0 .043-.061.03-.068.064.58.451 1.014.545 1.802.51.354-.262.67-.563 1.043-.807-.855.074-1.931.607-2.774.23zm3.42-17.726c-1.606-.906-4.35-1.591-6.076-.731-1.38.692-3.27 1.84-3.899 3.292.6 1.402-.166 2.686-.226 4.109-.018.757.36 1.42.391 2.242-.2.338-.825.38-1.26.356-.146-.729-.4-1.549-1.155-1.63-1.064-.116-1.845.764-1.89 1.683-.06 1.08.833 2.864 2.085 2.745.488-.046.608-.54 1.139-.54.285.57-.445.75-.523 1.154-.016.105.06.511.104.705.233.944.744 2.16 1.245 2.88.635.9 1.884 1.051 3.229 1.141.24-.525 1.125-.48 1.706-.346-.691-.27-1.336-.945-1.875-1.529-.615-.676-1.23-1.41-1.261-2.28 1.155 1.604 2.1 3 4.2 3.704 1.59.525 3.45-.254 4.664-1.109.51-.359.811-.93 1.17-1.439 1.35-1.936 1.98-4.71 1.846-7.394-.06-1.111-.06-2.221-.436-2.955-.389-.781-1.695-1.471-2.475-.781-.15-.764.63-1.23 1.545-.96-.66-.854-1.336-1.858-2.266-2.384zM13.58 14.896c.615 1.544 2.724 1.363 4.505 1.323-.084.194-.256.435-.465.515-.57.232-2.145.408-2.937-.012-.506-.27-.824-.873-1.102-1.227-.137-.172-.795-.608-.012-.609zm.164-.87c.893.464 2.52.517 3.731.48.066.267.066.593.068.913-1.55.08-3.386-.304-3.794-1.395h-.005zm6.675-.586c-.473.9-1.145 1.897-2.539 1.928-.023-.284-.045-.735 0-.904 1.064-.103 1.727-.646 2.543-1.017zm-.649-.667c-1.02.66-2.154 1.375-3.824 1.21-.351-.31-.485-1-.14-1.458.181.313.06.885.57.97.944.165 2.038-.579 2.73-.84.42-.713-.046-.976-.42-1.433-.782-.93-1.83-2.1-1.802-3.51.314-.224.346.346.391.45.404.96 1.424 2.175 2.174 3 .18.21.48.39.51.524.092.39-.254.854-.209 1.11zm-13.439-.675c-.314-.184-.393-.99-.768-1.01-.535-.03-.438 1.05-.436 1.68-.37-.33-.435-1.365-.164-1.89-.308-.15-.445.164-.618.284.22-1.59 2.34-.734 1.99.96zM4.713 5.995c-.685.756-.54 2.174-.459 3.188 1.244-.785 2.898.06 2.883 1.394.595-.016.223-.744.115-1.215-.353-1.528.592-3.187.041-4.59-1.064.084-1.939.52-2.578 1.215zm9.12 1.113c.307.562.404 1.148.84 1.57.195.19.574.424.387.95-.045.121-.365.391-.551.45-.674.195-2.254.03-1.721-.81.563.015 1.314.36 1.732-.045-.314-.524-.885-1.53-.674-2.13zm6.198-.013h.068c.33.668.6 1.375 1.004 1.965-.27.628-2.053 1.19-2.023.057.39-.17 1.05-.035 1.395-.25-.193-.556-.48-1.006-.434-1.771zm-6.927-1.617c-1.422-.33-2.131.592-2.56 1.553-.384-.094-.231-.615-.135-.883.255-.701 1.28-1.633 2.119-1.506.359.057.848.386.576.834zM9.642 1.593c-1.56.44-3.56 1.574-4.2 2.974.495-.07.84-.321 1.33-.351.186-.016.428.074.641.015.424-.104.78-1.065 1.102-1.41.31-.345.685-.496.94-.81.167-.09.409-.074.42-.33-.073-.075-.15-.135-.232-.105v.017z"/></g>
<text x="336" y="192" font-family="Helvetica, Arial, sans-serif" font-size="17" font-weight="700" fill="#1B2733" text-anchor="start">Jenkins</text>
<text x="336" y="212" font-family="Helvetica, Arial, sans-serif" font-size="12.5" font-weight="400" fill="#7A8AA0" text-anchor="start">declarative pipeline</text>
<circle cx="300" cy="300" r="17" fill="#2563EB" stroke="#ffffff" stroke-width="2.5"/>
<circle cx="300" cy="300" r="17" fill="none" stroke="#1E3A8A" stroke-width="1" opacity="0.4"/>
<text x="300" y="305.5" font-family="Helvetica, Arial, sans-serif" font-size="17" font-weight="700" fill="#ffffff" text-anchor="middle">8</text>
<rect x="360" y="232" width="106" height="62" rx="10" ry="10" fill="#F7FAFF" stroke="#E3E9F0" stroke-width="1.3" opacity="1"/>
<circle cx="382" cy="263" r="15" fill="#ffffff" stroke="#E3E9F0" stroke-width="1.5"/>
<g transform="translate(372.00,253.00) scale(0.8333)" fill="#126ED3"><path d="M12 0a.774.774 0 0 0-.775.775c0 .43.346.776.775.776 5.762 0 10.45 4.687 10.45 10.449 0 .43.345.775.775.775A.774.774 0 0 0 24 12c0-6.616-5.384-12-12-12zm0 3.932a.774.774 0 0 0-.775.775c0 .43.346.775.775.775A6.524 6.524 0 0 1 18.518 12c0 .43.346.775.775.775.43 0 .775-.346.775-.775 0-4.448-3.62-8.068-8.068-8.068zm0 3.925a.774.774 0 0 0-.775.776c0 .43.346.775.775.775A2.597 2.597 0 0 1 14.592 12c0 .43.346.775.775.775.43 0 .776-.346.776-.775A4.145 4.145 0 0 0 12 7.857zM.775 11.225A.774.774 0 0 0 0 12c0 6.616 5.384 12 12 12 .43 0 .775-.346.775-.775a.774.774 0 0 0-.775-.776C6.238 22.45 1.55 17.762 1.55 12a.774.774 0 0 0-.775-.775zm3.932 0a.774.774 0 0 0-.775.775c0 4.448 3.62 8.068 8.068 8.068.43 0 .775-.346.775-.775a.774.774 0 0 0-.775-.775A6.524 6.524 0 0 1 5.482 12a.774.774 0 0 0-.775-.775zm3.926 0a.774.774 0 0 0-.776.775A4.145 4.145 0 0 0 12 16.143c.43 0 .775-.347.775-.776a.774.774 0 0 0-.775-.775A2.597 2.597 0 0 1 9.408 12a.774.774 0 0 0-.775-.775z"/></g>
<text x="400" y="258" font-family="Helvetica, Arial, sans-serif" font-size="12.5" font-weight="700" fill="#1B2733" text-anchor="start">SonarQube</text>
<text x="400" y="275" font-family="Helvetica, Arial, sans-serif" font-size="10.5" font-weight="400" fill="#7A8AA0" text-anchor="start">scan + coverage</text>
<rect x="478" y="232" width="106" height="62" rx="10" ry="10" fill="#F7FAFF" stroke="#E3E9F0" stroke-width="1.3" opacity="1"/>
<circle cx="500" cy="263" r="15" fill="#ffffff" stroke="#E3E9F0" stroke-width="1.5"/>
<g transform="translate(490.00,253.00) scale(0.8333)" fill="#2496ED"><path d="M13.983 11.078h2.119a.186.186 0 00.186-.185V9.006a.186.186 0 00-.186-.186h-2.119a.185.185 0 00-.185.185v1.888c0 .102.083.185.185.185m-2.954-5.43h2.118a.186.186 0 00.186-.186V3.574a.186.186 0 00-.186-.185h-2.118a.185.185 0 00-.185.185v1.888c0 .102.082.185.185.185m0 2.716h2.118a.187.187 0 00.186-.186V6.29a.186.186 0 00-.186-.185h-2.118a.185.185 0 00-.185.185v1.887c0 .102.082.185.185.186m-2.93 0h2.12a.186.186 0 00.184-.186V6.29a.185.185 0 00-.185-.185H8.1a.185.185 0 00-.185.185v1.887c0 .102.083.185.185.186m-2.964 0h2.119a.186.186 0 00.185-.186V6.29a.185.185 0 00-.185-.185H5.136a.186.186 0 00-.186.185v1.887c0 .102.084.185.186.186m5.893 2.715h2.118a.186.186 0 00.186-.185V9.006a.186.186 0 00-.186-.186h-2.118a.185.185 0 00-.185.185v1.888c0 .102.082.185.185.185m-2.93 0h2.12a.185.185 0 00.184-.185V9.006a.185.185 0 00-.184-.186h-2.12a.185.185 0 00-.184.185v1.888c0 .102.083.185.185.185m-2.964 0h2.119a.185.185 0 00.185-.185V9.006a.185.185 0 00-.184-.186h-2.12a.186.186 0 00-.186.186v1.887c0 .102.084.185.186.185m-2.92 0h2.12a.185.185 0 00.184-.185V9.006a.185.185 0 00-.184-.186h-2.12a.185.185 0 00-.184.185v1.888c0 .102.082.185.185.185M23.763 9.89c-.065-.051-.672-.51-1.954-.51-.338.001-.676.03-1.01.087-.248-1.7-1.653-2.53-1.716-2.566l-.344-.199-.226.327c-.284.438-.49.922-.612 1.43-.23.97-.09 1.882.403 2.661-.595.332-1.55.413-1.744.42H.751a.751.751 0 00-.75.748 11.376 11.376 0 00.692 4.062c.545 1.428 1.355 2.48 2.41 3.124 1.18.723 3.1 1.137 5.275 1.137.983.003 1.963-.086 2.93-.266a12.248 12.248 0 003.823-1.389c.98-.567 1.86-1.288 2.61-2.136 1.252-1.418 1.998-2.997 2.553-4.4h.221c1.372 0 2.215-.549 2.68-1.009.309-.293.55-.65.707-1.046l.098-.288Z"/></g>
<text x="518" y="258" font-family="Helvetica, Arial, sans-serif" font-size="12.5" font-weight="700" fill="#1B2733" text-anchor="start">Docker</text>
<text x="518" y="275" font-family="Helvetica, Arial, sans-serif" font-size="10.5" font-weight="400" fill="#7A8AA0" text-anchor="start">build image</text>
<rect x="596" y="232" width="106" height="62" rx="10" ry="10" fill="#F7FAFF" stroke="#E3E9F0" stroke-width="1.3" opacity="1"/>
<circle cx="618" cy="263" r="15" fill="#ffffff" stroke="#E3E9F0" stroke-width="1.5"/>
<g transform="translate(608.00,253.00) scale(0.8333)" fill="#1904DA"><path d="M4.375 7.311 1.962 5.918a.1.1 0 0 1 0-.174L11.828.047a.343.343 0 0 1 .344 0l9.864 5.696a.1.1 0 0 1 0 .175L19.624 7.31a.962.962 0 0 1-.052-.074c-.914-1.478-2.124-2.592-3.596-3.31-4.088-1.994-9.164-.505-11.6 3.385ZM12.262 23.899v-3.14c5.693-2.087 9.01-7.766 7.588-12.985l2.436-1.42a.1.1 0 0 1 .151.088v11.645a.1.1 0 0 1-.05.087l-9.973 5.812a.1.1 0 0 1-.152-.087Zm-.559-3.141v3.14a.1.1 0 0 1-.151.086l-9.933-5.81a.114.114 0 0 1-.056-.099V6.436a.1.1 0 0 1 .15-.087l2.44 1.41c-1.455 5.307 1.846 10.993 7.55 13ZM7.013 8.834 4.807 7.561c2.306-3.665 7.094-5.066 10.95-3.186 1.385.676 2.526 1.727 3.39 3.124l.04.062-2.195 1.268a5.57 5.57 0 0 0-2.429-2.307c-2.603-1.27-5.901-.253-7.552 2.311Zm9.337 5.2c.813-1.371 1.088-2.99.798-4.685l2.255-1.314c1.245 4.86-1.864 10.169-7.14 12.192v-3.072c1.86-.67 3.272-1.747 4.087-3.12ZM4.6 8.018l2.27 1.31c-.225 1.571.112 3.204.951 4.606.919 1.536 2.225 2.629 3.881 3.25v3.045C6.327 18.25 3.297 13.042 4.601 8.017Zm5.303 2.486-2.459-1.42c1.52-2.34 4.53-3.268 6.9-2.112a5.075 5.075 0 0 1 2.216 2.108l-2.471 1.427a2.311 2.311 0 0 0-2.03-1.195c-.825 0-1.645.43-2.156 1.192Zm4.338.522 2.443-1.408c.22 1.51-.043 2.945-.765 4.162-.735 1.238-1.998 2.224-3.658 2.856v-2.631c1.25-.691 1.968-1.771 1.98-2.979ZM8.25 13.676A6.576 6.576 0 0 1 7.34 9.6l2.446 1.412c-.016 1.271.73 2.437 1.917 2.997v2.624a6.977 6.977 0 0 1-3.453-2.956Zm3.853-.148-.137.073-.157-.075c-1.023-.504-1.524-1.606-1.557-2.417a1.99 1.99 0 0 1 .004-.23 2.153 2.153 0 0 1 1.163-.957c.508-.178 1.034-.153 1.444.071.6.327.84.797.86.86.008.156.004.253.004.256-.038.981-.63 1.863-1.624 2.419Z"/></g>
<text x="636" y="258" font-family="Helvetica, Arial, sans-serif" font-size="12.5" font-weight="700" fill="#1B2733" text-anchor="start">Trivy</text>
<text x="636" y="275" font-family="Helvetica, Arial, sans-serif" font-size="10.5" font-weight="400" fill="#7A8AA0" text-anchor="start">image scan</text>
<rect x="772" y="168" width="168" height="132" rx="14" ry="14" fill="#FFFFFF" stroke="#E3E9F0" stroke-width="1.6" opacity="1"/>
<rect x="792.0" y="190.0" width="40" height="40" rx="7" fill="#F58536"/>
<rect x="800" y="201" width="24" height="18" rx="2.5" fill="none" stroke="white" stroke-width="2.4"/>
<line x1="812" y1="201" x2="812" y2="219" stroke="white" stroke-width="2.4"/>
<line x1="800" y1="210" x2="824" y2="210" stroke="white" stroke-width="2.4"/>
<text x="842" y="200" font-family="Helvetica, Arial, sans-serif" font-size="13" font-weight="700" fill="#1B2733" text-anchor="start">Amazon</text>
<text x="842" y="216" font-family="Helvetica, Arial, sans-serif" font-size="13" font-weight="700" fill="#1B2733" text-anchor="start">ECR</text>
<text x="856" y="258" font-family="Helvetica, Arial, sans-serif" font-size="12" font-weight="middle" fill="#7A8AA0" text-anchor="middle">container</text>
<text x="856" y="275" font-family="Helvetica, Arial, sans-serif" font-size="12" font-weight="middle" fill="#7A8AA0" text-anchor="middle">image registry</text>
<circle cx="772" cy="176" r="17" fill="#2563EB" stroke="#ffffff" stroke-width="2.5"/>
<circle cx="772" cy="176" r="17" fill="none" stroke="#1E3A8A" stroke-width="1" opacity="0.4"/>
<text x="772" y="181.5" font-family="Helvetica, Arial, sans-serif" font-size="17" font-weight="700" fill="#ffffff" text-anchor="middle">4</text>
<line x1="220" y1="234" x2="266" y2="234" stroke="#E8791A" stroke-width="2.6" marker-end="url(#arrowCI)" stroke-dasharray="7,6" stroke-linecap="round"/>
<line x1="738" y1="234" x2="770" y2="234" stroke="#E8791A" stroke-width="2.6" marker-end="url(#arrowCI)" stroke-dasharray="7,6" stroke-linecap="round"/>
<text x="755" y="224" font-family="Helvetica, Arial, sans-serif" font-size="11.5" font-weight="600" fill="#B4791F" text-anchor="middle">push</text>
<rect x="628" y="356" width="1092" height="548" rx="20" ry="20" fill="#EAF1FD" stroke="#326CE5" stroke-width="2.2" opacity="1"/>
<rect x="628" y="356" width="1092" height="46" rx="20" ry="20" fill="#326CE5" stroke="none" stroke-width="2" opacity="1"/>
<rect x="628" y="380" width="1092" height="24" rx="0" ry="0" fill="#326CE5" stroke="none" stroke-width="2" opacity="1"/>
<circle cx="658" cy="379" r="16" fill="#ffffff" stroke="#E3E9F0" stroke-width="1.5"/>
<g transform="translate(647.00,368.00) scale(0.9167)" fill="#326CE5"><path d="M10.204 14.35l.007.01-.999 2.413a5.171 5.171 0 0 1-2.075-2.597l2.578-.437.004.005a.44.44 0 0 1 .484.606zm-.833-2.129a.44.44 0 0 0 .173-.756l.002-.011L7.585 9.7a5.143 5.143 0 0 0-.73 3.255l2.514-.725.002-.009zm1.145-1.98a.44.44 0 0 0 .699-.337l.01-.005.15-2.62a5.144 5.144 0 0 0-3.01 1.442l2.147 1.523.004-.002zm.76 2.75l.723.349.722-.347.18-.78-.5-.623h-.804l-.5.623.179.779zm1.5-3.095a.44.44 0 0 0 .7.336l.008.003 2.134-1.513a5.188 5.188 0 0 0-2.992-1.442l.148 2.615.002.001zm10.876 5.97l-5.773 7.181a1.6 1.6 0 0 1-1.248.594l-9.261.003a1.6 1.6 0 0 1-1.247-.596l-5.776-7.18a1.583 1.583 0 0 1-.307-1.34L2.1 5.573c.108-.47.425-.864.863-1.073L11.305.513a1.606 1.606 0 0 1 1.385 0l8.345 3.985c.438.209.755.604.863 1.073l2.062 8.955c.108.47-.005.963-.308 1.34zm-3.289-2.057c-.042-.01-.103-.026-.145-.034-.174-.033-.315-.025-.479-.038-.35-.037-.638-.067-.895-.148-.105-.04-.18-.165-.216-.216l-.201-.059a6.45 6.45 0 0 0-.105-2.332 6.465 6.465 0 0 0-.936-2.163c.052-.047.15-.133.177-.159.008-.09.001-.183.094-.282.197-.185.444-.338.743-.522.142-.084.273-.137.415-.242.032-.024.076-.062.11-.089.24-.191.295-.52.123-.736-.172-.216-.506-.236-.745-.045-.034.027-.08.062-.111.088-.134.116-.217.23-.33.35-.246.25-.45.458-.673.609-.097.056-.239.037-.303.033l-.19.135a6.545 6.545 0 0 0-4.146-2.003l-.012-.223c-.065-.062-.143-.115-.163-.25-.022-.268.015-.557.057-.905.023-.163.061-.298.068-.475.001-.04-.001-.099-.001-.142 0-.306-.224-.555-.5-.555-.275 0-.499.249-.499.555l.001.014c0 .041-.002.092 0 .128.006.177.044.312.067.475.042.348.078.637.056.906a.545.545 0 0 1-.162.258l-.012.211a6.424 6.424 0 0 0-4.166 2.003 8.373 8.373 0 0 1-.18-.128c-.09.012-.18.04-.297-.029-.223-.15-.427-.358-.673-.608-.113-.12-.195-.234-.329-.349-.03-.026-.077-.062-.111-.088a.594.594 0 0 0-.348-.132.481.481 0 0 0-.398.176c-.172.216-.117.546.123.737l.007.005.104.083c.142.105.272.159.414.242.299.185.546.338.743.522.076.082.09.226.1.288l.16.143a6.462 6.462 0 0 0-1.02 4.506l-.208.06c-.055.072-.133.184-.215.217-.257.081-.546.11-.895.147-.164.014-.305.006-.48.039-.037.007-.09.02-.133.03l-.004.002-.007.002c-.295.071-.484.342-.423.608.061.267.349.429.645.365l.007-.001.01-.003.129-.029c.17-.046.294-.113.448-.172.33-.118.604-.217.87-.256.112-.009.23.069.288.101l.217-.037a6.5 6.5 0 0 0 2.88 3.596l-.09.218c.033.084.069.199.044.282-.097.252-.263.517-.452.813-.091.136-.185.242-.268.399-.02.037-.045.095-.064.134-.128.275-.034.591.213.71.248.12.556-.007.69-.282v-.002c.02-.039.046-.09.062-.127.07-.162.094-.301.144-.458.132-.332.205-.68.387-.897.05-.06.13-.082.215-.105l.113-.205a6.453 6.453 0 0 0 4.609.012l.106.192c.086.028.18.042.256.155.136.232.229.507.342.84.05.156.074.295.145.457.016.037.043.09.062.129.133.276.442.402.69.282.247-.118.341-.435.213-.71-.02-.039-.045-.096-.065-.134-.083-.156-.177-.261-.268-.398-.19-.296-.346-.541-.443-.793-.04-.13.007-.21.038-.294-.018-.022-.059-.144-.083-.202a6.499 6.499 0 0 0 2.88-3.622c.064.01.176.03.213.038.075-.05.144-.114.28-.104.266.039.54.138.87.256.154.06.277.128.448.173.036.01.088.019.13.028l.009.003.007.001c.297.064.584-.098.645-.365.06-.266-.128-.537-.423-.608zM16.4 9.701l-1.95 1.746v.005a.44.44 0 0 0 .173.757l.003.01 2.526.728a5.199 5.199 0 0 0-.108-1.674A5.208 5.208 0 0 0 16.4 9.7zm-4.013 5.325a.437.437 0 0 0-.404-.232.44.44 0 0 0-.372.233h-.002l-1.268 2.292a5.164 5.164 0 0 0 3.326.003l-1.27-2.296h-.01zm1.888-1.293a.44.44 0 0 0-.27.036.44.44 0 0 0-.214.572l-.003.004 1.01 2.438a5.15 5.15 0 0 0 2.081-2.615l-2.6-.44-.004.005z"/></g>
<text x="680" y="386" font-family="Helvetica, Arial, sans-serif" font-size="18" font-weight="700" fill="#FFFFFF" text-anchor="start">Kubernetes Cluster</text>
<text x="1696" y="386" font-family="Helvetica, Arial, sans-serif" font-size="13.5" font-weight="400" fill="#DCE8FF" text-anchor="end">kubeadm · Calico CNI · 5 nodes</text>
<rect x="656" y="422" width="236" height="58" rx="12" ry="12" fill="#FFFFFF" stroke="#C9D6EA" stroke-width="1.6" opacity="1"/>
<circle cx="686" cy="451" r="16" fill="#ffffff" stroke="#E3E9F0" stroke-width="1.5"/>
<g transform="translate(675.00,440.00) scale(0.9167)" fill="#326CE5"><path d="M10.204 14.35l.007.01-.999 2.413a5.171 5.171 0 0 1-2.075-2.597l2.578-.437.004.005a.44.44 0 0 1 .484.606zm-.833-2.129a.44.44 0 0 0 .173-.756l.002-.011L7.585 9.7a5.143 5.143 0 0 0-.73 3.255l2.514-.725.002-.009zm1.145-1.98a.44.44 0 0 0 .699-.337l.01-.005.15-2.62a5.144 5.144 0 0 0-3.01 1.442l2.147 1.523.004-.002zm.76 2.75l.723.349.722-.347.18-.78-.5-.623h-.804l-.5.623.179.779zm1.5-3.095a.44.44 0 0 0 .7.336l.008.003 2.134-1.513a5.188 5.188 0 0 0-2.992-1.442l.148 2.615.002.001zm10.876 5.97l-5.773 7.181a1.6 1.6 0 0 1-1.248.594l-9.261.003a1.6 1.6 0 0 1-1.247-.596l-5.776-7.18a1.583 1.583 0 0 1-.307-1.34L2.1 5.573c.108-.47.425-.864.863-1.073L11.305.513a1.606 1.606 0 0 1 1.385 0l8.345 3.985c.438.209.755.604.863 1.073l2.062 8.955c.108.47-.005.963-.308 1.34zm-3.289-2.057c-.042-.01-.103-.026-.145-.034-.174-.033-.315-.025-.479-.038-.35-.037-.638-.067-.895-.148-.105-.04-.18-.165-.216-.216l-.201-.059a6.45 6.45 0 0 0-.105-2.332 6.465 6.465 0 0 0-.936-2.163c.052-.047.15-.133.177-.159.008-.09.001-.183.094-.282.197-.185.444-.338.743-.522.142-.084.273-.137.415-.242.032-.024.076-.062.11-.089.24-.191.295-.52.123-.736-.172-.216-.506-.236-.745-.045-.034.027-.08.062-.111.088-.134.116-.217.23-.33.35-.246.25-.45.458-.673.609-.097.056-.239.037-.303.033l-.19.135a6.545 6.545 0 0 0-4.146-2.003l-.012-.223c-.065-.062-.143-.115-.163-.25-.022-.268.015-.557.057-.905.023-.163.061-.298.068-.475.001-.04-.001-.099-.001-.142 0-.306-.224-.555-.5-.555-.275 0-.499.249-.499.555l.001.014c0 .041-.002.092 0 .128.006.177.044.312.067.475.042.348.078.637.056.906a.545.545 0 0 1-.162.258l-.012.211a6.424 6.424 0 0 0-4.166 2.003 8.373 8.373 0 0 1-.18-.128c-.09.012-.18.04-.297-.029-.223-.15-.427-.358-.673-.608-.113-.12-.195-.234-.329-.349-.03-.026-.077-.062-.111-.088a.594.594 0 0 0-.348-.132.481.481 0 0 0-.398.176c-.172.216-.117.546.123.737l.007.005.104.083c.142.105.272.159.414.242.299.185.546.338.743.522.076.082.09.226.1.288l.16.143a6.462 6.462 0 0 0-1.02 4.506l-.208.06c-.055.072-.133.184-.215.217-.257.081-.546.11-.895.147-.164.014-.305.006-.48.039-.037.007-.09.02-.133.03l-.004.002-.007.002c-.295.071-.484.342-.423.608.061.267.349.429.645.365l.007-.001.01-.003.129-.029c.17-.046.294-.113.448-.172.33-.118.604-.217.87-.256.112-.009.23.069.288.101l.217-.037a6.5 6.5 0 0 0 2.88 3.596l-.09.218c.033.084.069.199.044.282-.097.252-.263.517-.452.813-.091.136-.185.242-.268.399-.02.037-.045.095-.064.134-.128.275-.034.591.213.71.248.12.556-.007.69-.282v-.002c.02-.039.046-.09.062-.127.07-.162.094-.301.144-.458.132-.332.205-.68.387-.897.05-.06.13-.082.215-.105l.113-.205a6.453 6.453 0 0 0 4.609.012l.106.192c.086.028.18.042.256.155.136.232.229.507.342.84.05.156.074.295.145.457.016.037.043.09.062.129.133.276.442.402.69.282.247-.118.341-.435.213-.71-.02-.039-.045-.096-.065-.134-.083-.156-.177-.261-.268-.398-.19-.296-.346-.541-.443-.793-.04-.13.007-.21.038-.294-.018-.022-.059-.144-.083-.202a6.499 6.499 0 0 0 2.88-3.622c.064.01.176.03.213.038.075-.05.144-.114.28-.104.266.039.54.138.87.256.154.06.277.128.448.173.036.01.088.019.13.028l.009.003.007.001c.297.064.584-.098.645-.365.06-.266-.128-.537-.423-.608zM16.4 9.701l-1.95 1.746v.005a.44.44 0 0 0 .173.757l.003.01 2.526.728a5.199 5.199 0 0 0-.108-1.674A5.208 5.208 0 0 0 16.4 9.7zm-4.013 5.325a.437.437 0 0 0-.404-.232.44.44 0 0 0-.372.233h-.002l-1.268 2.292a5.164 5.164 0 0 0 3.326.003l-1.27-2.296h-.01zm1.888-1.293a.44.44 0 0 0-.27.036.44.44 0 0 0-.214.572l-.003.004 1.01 2.438a5.15 5.15 0 0 0 2.081-2.615l-2.6-.44-.004.005z"/></g>
<text x="708" y="446" font-family="Helvetica, Arial, sans-serif" font-size="14" font-weight="700" fill="#1B2733" text-anchor="start">Control plane</text>
<text x="708" y="464" font-family="Helvetica, Arial, sans-serif" font-size="11.5" font-weight="400" fill="#7A8AA0" text-anchor="start">kubectl (admin) · RBAC</text>
<circle cx="656" cy="422" r="17" fill="#2563EB" stroke="#ffffff" stroke-width="2.5"/>
<circle cx="656" cy="422" r="17" fill="none" stroke="#1E3A8A" stroke-width="1" opacity="0.4"/>
<text x="656" y="427.5" font-family="Helvetica, Arial, sans-serif" font-size="17" font-weight="700" fill="#ffffff" text-anchor="middle">1</text>
<rect x="662" y="488" width="236" height="96" rx="14" ry="14" fill="#FFFFFF" stroke="#E3E9F0" stroke-width="1.6" opacity="1"/>
<circle cx="700" cy="536" r="21" fill="#ffffff" stroke="#E3E9F0" stroke-width="1.5"/>
<g transform="translate(686.50,522.50) scale(1.1250)" fill="#003A70"><path d="M11.9914 0a.8829.8829 0 00-.8718.817v3.0209A.8829.8829 0 0012 4.7207a.8829.8829 0 00.8803-.8803V.817a.8829.8829 0 00-.889-.817zm7.7048 3.1089a.8804.8804 0 00-.5214.1742l-2.374 1.9482a.8804.8804 0 00.5592 1.5622.8794.8794 0 00.5592-.2001l2.3714-1.9506a.8804.8804 0 00-.5944-1.534zm-15.3763.0133a.8829.8829 0 00-.611 1.5206l2.37 1.9506a.876.876 0 00.5606.2001v-.002a.8804.8804 0 00.5597-1.5602L4.8277 3.2831a.8829.8829 0 00-.5078-.161zm7.6598 3.2275a5.0456 5.0456 0 00-5.0262 5.0455v1.4876H5.787a.9672.9672 0 00-.9647.9643v9.1887a.9672.9672 0 00.9647.9643H18.213a.9672.9672 0 00.9643-.9643v-9.1907a.9672.9672 0 00-.9643-.9623h-1.1684v-1.4876a5.0456 5.0456 0 00-5.0649-5.0455zm.0127 2.8933a2.1522 2.1522 0 012.1593 2.1522v1.4876H9.8473v-1.4876a2.1522 2.1522 0 012.145-2.1522zm7.3812.5033a.8829.8829 0 10.0705 1.7632h3.0267a.8829.8829 0 000-1.7609H19.444a.8829.8829 0 00-.0705-.0023zm-17.8444.0023a.8829.8829 0 000 1.7609h2.9983a.8829.8829 0 000-1.7609zm10.4596 6.7746a1.2792 1.2792 0 01.641 2.3926v1.2453a.6298.6298 0 01-1.2595 0v-1.2453a1.2792 1.2792 0 01.6185-2.3926z"/></g>
<text x="732" y="526" font-family="Helvetica, Arial, sans-serif" font-size="14.5" font-weight="700" fill="#1B2733" text-anchor="start">cert-manager</text>
<text x="732" y="544" font-family="Helvetica, Arial, sans-serif" font-size="12.5" font-weight="400" fill="#5B6B7B" text-anchor="start">Let’s Encrypt</text>
<text x="732" y="561" font-family="Helvetica, Arial, sans-serif" font-size="11.5" font-weight="400" fill="#7A8AA0" text-anchor="start">DNS-01 · Route 53</text>
<circle cx="662" cy="488" r="17" fill="#2563EB" stroke="#ffffff" stroke-width="2.5"/>
<circle cx="662" cy="488" r="17" fill="none" stroke="#1E3A8A" stroke-width="1" opacity="0.4"/>
<text x="662" y="493.5" font-family="Helvetica, Arial, sans-serif" font-size="17" font-weight="700" fill="#ffffff" text-anchor="middle">5</text>
<rect x="662" y="606" width="236" height="206" rx="14" ry="14" fill="#FFFFFF" stroke="#009639" stroke-width="1.8" opacity="1"/>
<circle cx="702" cy="650" r="23" fill="#ffffff" stroke="#E3E9F0" stroke-width="1.5"/>
<g transform="translate(687.00,635.00) scale(1.2500)" fill="#009639"><path d="M12 0L1.605 6v12L12 24l10.395-6V6L12 0zm6 16.59c0 .705-.646 1.29-1.529 1.29-.631 0-1.351-.255-1.801-.81l-6-7.141v6.66c0 .721-.57 1.29-1.274 1.29H7.32c-.721 0-1.29-.6-1.29-1.29V7.41c0-.705.63-1.29 1.5-1.29.646 0 1.38.255 1.83.81l5.97 7.141V7.41c0-.721.6-1.29 1.29-1.29h.075c.72 0 1.29.6 1.29 1.29v9.18H18z"/></g>
<text x="734" y="644" font-family="Helvetica, Arial, sans-serif" font-size="16" font-weight="700" fill="#1B2733" text-anchor="start">NGINX</text>
<text x="734" y="662" font-family="Helvetica, Arial, sans-serif" font-size="12.5" font-weight="400" fill="#5B6B7B" text-anchor="start">Ingress Controller</text>
<line x1="680" y1="684" x2="880" y2="684" stroke="#EDF1F6" stroke-width="1.5"/>
<text x="780.0" y="706" font-family="Helvetica, Arial, sans-serif" font-size="11.5" font-weight="middle" fill="#5B6B7B" text-anchor="18">namespace: ingress-nginx</text>
<text x="780.0" y="723" font-family="Helvetica, Arial, sans-serif" font-size="11.5" font-weight="middle" fill="#5B6B7B" text-anchor="18">2 replicas · type LoadBalancer</text>
<rect x="680" y="756" width="200" height="44" rx="10" ry="10" fill="#F1FAF4" stroke="#B7E3C6" stroke-width="1.3" opacity="1"/>
<path d="M 694.0 778.0 v-6.0 a8.0 8.0 0 0 1 16.0 0 v6.0" fill="none" stroke="#009639" stroke-width="2.4"/>
<rect x="691.0" y="778.0" width="22.0" height="15.0" rx="3.0" fill="#009639"/>
<text x="724" y="774" font-family="Helvetica, Arial, sans-serif" font-size="12" font-weight="700" fill="#1B2733" text-anchor="start">TLS termination</text>
<text x="724" y="790" font-family="Helvetica, Arial, sans-serif" font-size="11" font-weight="400" fill="#5B7A66" text-anchor="start">host-based routing</text>
<circle cx="662" cy="606" r="17" fill="#2563EB" stroke="#ffffff" stroke-width="2.5"/>
<circle cx="662" cy="606" r="17" fill="none" stroke="#1E3A8A" stroke-width="1" opacity="0.4"/>
<text x="662" y="611.5" font-family="Helvetica, Arial, sans-serif" font-size="17" font-weight="700" fill="#ffffff" text-anchor="middle">7</text>
<rect x="986" y="470" width="300" height="150" rx="14" ry="14" fill="#FFFFFF" stroke="#E3E9F0" stroke-width="1.6" opacity="1"/>
<rect x="986" y="470" width="300" height="34" rx="14" ry="14" fill="#EFF7FF" stroke="none" stroke-width="2" opacity="1"/>
<rect x="986" y="488" width="300" height="16" rx="0" ry="0" fill="#EFF7FF" stroke="none" stroke-width="2" opacity="1"/>
<text x="1002" y="493" font-family="Helvetica, Arial, sans-serif" font-size="12.5" font-weight="700" fill="#4A6A85" text-anchor="start">namespace: ingress-frontend</text>
<circle cx="1030" cy="556" r="23" fill="#20232A" stroke="#20232A" stroke-width="1.5"/>
<g transform="translate(1015.00,541.00) scale(1.2500)" fill="#61DAFB"><path d="M14.23 12.004a2.236 2.236 0 0 1-2.235 2.236 2.236 2.236 0 0 1-2.236-2.236 2.236 2.236 0 0 1 2.235-2.236 2.236 2.236 0 0 1 2.236 2.236zm2.648-10.69c-1.346 0-3.107.96-4.888 2.622-1.78-1.653-3.542-2.602-4.887-2.602-.41 0-.783.093-1.106.278-1.375.793-1.683 3.264-.973 6.365C1.98 8.917 0 10.42 0 12.004c0 1.59 1.99 3.097 5.043 4.03-.704 3.113-.39 5.588.988 6.38.32.187.69.275 1.102.275 1.345 0 3.107-.96 4.888-2.624 1.78 1.654 3.542 2.603 4.887 2.603.41 0 .783-.09 1.106-.275 1.374-.792 1.683-3.263.973-6.365C22.02 15.096 24 13.59 24 12.004c0-1.59-1.99-3.097-5.043-4.032.704-3.11.39-5.587-.988-6.38-.318-.184-.688-.277-1.092-.278zm-.005 1.09v.006c.225 0 .406.044.558.127.666.382.955 1.835.73 3.704-.054.46-.142.945-.25 1.44-.96-.236-2.006-.417-3.107-.534-.66-.905-1.345-1.727-2.035-2.447 1.592-1.48 3.087-2.292 4.105-2.295zm-9.77.02c1.012 0 2.514.808 4.11 2.28-.686.72-1.37 1.537-2.02 2.442-1.107.117-2.154.298-3.113.538-.112-.49-.195-.964-.254-1.42-.23-1.868.054-3.32.714-3.707.19-.09.4-.127.563-.132zm4.882 3.05c.455.468.91.992 1.36 1.564-.44-.02-.89-.034-1.345-.034-.46 0-.915.01-1.36.034.44-.572.895-1.096 1.345-1.565zM12 8.1c.74 0 1.477.034 2.202.093.406.582.802 1.203 1.183 1.86.372.64.71 1.29 1.018 1.946-.308.655-.646 1.31-1.013 1.95-.38.66-.773 1.288-1.18 1.87-.728.063-1.466.098-2.21.098-.74 0-1.477-.035-2.202-.093-.406-.582-.802-1.204-1.183-1.86-.372-.64-.71-1.29-1.018-1.946.303-.657.646-1.313 1.013-1.954.38-.66.773-1.286 1.18-1.868.728-.064 1.466-.098 2.21-.098zm-3.635.254c-.24.377-.48.763-.704 1.16-.225.39-.435.782-.635 1.174-.265-.656-.49-1.31-.676-1.947.64-.15 1.315-.283 2.015-.386zm7.26 0c.695.103 1.365.23 2.006.387-.18.632-.405 1.282-.66 1.933-.2-.39-.41-.783-.64-1.174-.225-.392-.465-.774-.705-1.146zm3.063.675c.484.15.944.317 1.375.498 1.732.74 2.852 1.708 2.852 2.476-.005.768-1.125 1.74-2.857 2.475-.42.18-.88.342-1.355.493-.28-.958-.646-1.956-1.1-2.98.45-1.017.81-2.01 1.085-2.964zm-13.395.004c.278.96.645 1.957 1.1 2.98-.45 1.017-.812 2.01-1.086 2.964-.484-.15-.944-.318-1.37-.5-1.732-.737-2.852-1.706-2.852-2.474 0-.768 1.12-1.742 2.852-2.476.42-.18.88-.342 1.356-.494zm11.678 4.28c.265.657.49 1.312.676 1.948-.64.157-1.316.29-2.016.39.24-.375.48-.762.705-1.158.225-.39.435-.788.636-1.18zm-9.945.02c.2.392.41.783.64 1.175.23.39.465.772.705 1.143-.695-.102-1.365-.23-2.006-.386.18-.63.406-1.282.66-1.933zM17.92 16.32c.112.493.2.968.254 1.423.23 1.868-.054 3.32-.714 3.708-.147.09-.338.128-.563.128-1.012 0-2.514-.807-4.11-2.28.686-.72 1.37-1.536 2.02-2.44 1.107-.118 2.154-.3 3.113-.54zm-11.83.01c.96.234 2.006.415 3.107.532.66.905 1.345 1.727 2.035 2.446-1.595 1.483-3.092 2.295-4.11 2.295-.22-.005-.406-.05-.553-.132-.666-.38-.955-1.834-.73-3.703.054-.46.142-.944.25-1.438zm4.56.64c.44.02.89.034 1.345.034.46 0 .915-.01 1.36-.034-.44.572-.895 1.095-1.345 1.565-.455-.47-.91-.993-1.36-1.565z"/></g>
<text x="1064" y="542" font-family="Helvetica, Arial, sans-serif" font-size="17" font-weight="700" fill="#1B2733" text-anchor="start">Frontend</text>
<text x="1064" y="561" font-family="Helvetica, Arial, sans-serif" font-size="12" font-weight="400" fill="#5B6B7B" text-anchor="start">React (static)</text>
<text x="1064" y="590" font-family="Helvetica, Arial, sans-serif" font-size="12.5" font-weight="600" fill="#33404F" text-anchor="start">Service :80  →  Pods</text>
<text x="1266" y="600" font-family="Helvetica, Arial, sans-serif" font-size="11" font-weight="700" fill="#5B6B7B" text-anchor="end">YAML</text>
<rect x="986" y="700" width="300" height="150" rx="14" ry="14" fill="#FFFFFF" stroke="#E3E9F0" stroke-width="1.6" opacity="1"/>
<rect x="986" y="700" width="300" height="34" rx="14" ry="14" fill="#F0FBF2" stroke="none" stroke-width="2" opacity="1"/>
<rect x="986" y="718" width="300" height="16" rx="0" ry="0" fill="#F0FBF2" stroke="none" stroke-width="2" opacity="1"/>
<text x="1002" y="723" font-family="Helvetica, Arial, sans-serif" font-size="12.5" font-weight="700" fill="#3F7A4E" text-anchor="start">namespace: ingress-backend</text>
<circle cx="1030" cy="786" r="23" fill="#ffffff" stroke="#E3E9F0" stroke-width="1.5"/>
<g transform="translate(1015.00,771.00) scale(1.2500)" fill="#5FA04E"><path d="M11.998,24c-0.321,0-0.641-0.084-0.922-0.247l-2.936-1.737c-0.438-0.245-0.224-0.332-0.08-0.383 c0.585-0.203,0.703-0.25,1.328-0.604c0.065-0.037,0.151-0.023,0.218,0.017l2.256,1.339c0.082,0.045,0.197,0.045,0.272,0l8.795-5.076 c0.082-0.047,0.134-0.141,0.134-0.238V6.921c0-0.099-0.053-0.192-0.137-0.242l-8.791-5.072c-0.081-0.047-0.189-0.047-0.271,0 L3.075,6.68C2.99,6.729,2.936,6.825,2.936,6.921v10.15c0,0.097,0.054,0.189,0.139,0.235l2.409,1.392 c1.307,0.654,2.108-0.116,2.108-0.89V7.787c0-0.142,0.114-0.253,0.256-0.253h1.115c0.139,0,0.255,0.112,0.255,0.253v10.021 c0,1.745-0.95,2.745-2.604,2.745c-0.508,0-0.909,0-2.026-0.551L2.28,18.675c-0.57-0.329-0.922-0.945-0.922-1.604V6.921 c0-0.659,0.353-1.275,0.922-1.603l8.795-5.082c0.557-0.315,1.296-0.315,1.848,0l8.794,5.082c0.57,0.329,0.924,0.944,0.924,1.603 v10.15c0,0.659-0.354,1.273-0.924,1.604l-8.794,5.078C12.643,23.916,12.324,24,11.998,24z M19.099,13.993 c0-1.9-1.284-2.406-3.987-2.763c-2.731-0.361-3.009-0.548-3.009-1.187c0-0.528,0.235-1.233,2.258-1.233 c1.807,0,2.473,0.389,2.747,1.607c0.024,0.115,0.129,0.199,0.247,0.199h1.141c0.071,0,0.138-0.031,0.186-0.081 c0.048-0.054,0.074-0.123,0.067-0.196c-0.177-2.098-1.571-3.076-4.388-3.076c-2.508,0-4.004,1.058-4.004,2.833 c0,1.925,1.488,2.457,3.895,2.695c2.88,0.282,3.103,0.703,3.103,1.269c0,0.983-0.789,1.402-2.642,1.402 c-2.327,0-2.839-0.584-3.011-1.742c-0.02-0.124-0.126-0.215-0.253-0.215h-1.137c-0.141,0-0.254,0.112-0.254,0.253 c0,1.482,0.806,3.248,4.655,3.248C17.501,17.007,19.099,15.91,19.099,13.993z"/></g>
<text x="1064" y="772" font-family="Helvetica, Arial, sans-serif" font-size="17" font-weight="700" fill="#1B2733" text-anchor="start">Backend</text>
<text x="1064" y="791" font-family="Helvetica, Arial, sans-serif" font-size="12" font-weight="400" fill="#5B6B7B" text-anchor="start">Node.js REST API</text>
<text x="1064" y="820" font-family="Helvetica, Arial, sans-serif" font-size="12.5" font-weight="600" fill="#33404F" text-anchor="start">Service :3000  →  Pods</text>
<circle cx="1256" cy="826" r="13" fill="#ffffff" stroke="#E3E9F0" stroke-width="1.5"/>
<g transform="translate(1247.50,817.50) scale(0.7083)" fill="#0F1689"><path d="M12.337 0c-.475 0-.861 1.016-.861 2.269 0 .527.069 1.011.183 1.396a8.514 8.514 0 0 0-3.961 1.22 5.229 5.229 0 0 0-.595-1.093c-.606-.866-1.34-1.436-1.79-1.43a.381.381 0 0 0-.217.066c-.39.273-.123 1.326.596 2.353.267.381.559.705.84.948a8.683 8.683 0 0 0-1.528 1.716h1.734a7.179 7.179 0 0 1 5.381-2.421 7.18 7.18 0 0 1 5.382 2.42h1.733a8.687 8.687 0 0 0-1.32-1.53c.35-.249.735-.643 1.078-1.133.719-1.027.986-2.08.596-2.353a.382.382 0 0 0-.217-.065c-.45-.007-1.184.563-1.79 1.43a4.897 4.897 0 0 0-.676 1.325 8.52 8.52 0 0 0-3.899-1.42c.12-.39.193-.887.193-1.429 0-1.253-.386-2.269-.862-2.269zM1.624 9.443v5.162h1.358v-1.968h1.64v1.968h1.357V9.443H4.62v1.838H2.98V9.443zm5.912 0v5.162h3.21v-1.108H8.893v-.95h1.64v-1.142h-1.64v-.84h1.853V9.443zm4.698 0v5.162h3.218v-1.362h-1.86v-3.8zm4.706 0v5.162h1.364v-2.643l1.357 1.225 1.35-1.232v2.65h1.365V9.443h-.614l-2.1 1.914-2.109-1.914zm-11.82 7.28a8.688 8.688 0 0 0 1.412 1.548 5.206 5.206 0 0 0-.841.948c-.719 1.027-.985 2.08-.596 2.353.39.273 1.289-.338 2.007-1.364a5.23 5.23 0 0 0 .595-1.092 8.514 8.514 0 0 0 3.961 1.219 5.01 5.01 0 0 0-.183 1.396c0 1.253.386 2.269.861 2.269.476 0 .862-1.016.862-2.269 0-.542-.072-1.04-.193-1.43a8.52 8.52 0 0 0 3.9-1.42c.121.4.352.865.675 1.327.719 1.026 1.617 1.637 2.007 1.364.39-.273.123-1.326-.596-2.353-.343-.49-.727-.885-1.077-1.135a8.69 8.69 0 0 0 1.202-1.36h-1.771a7.174 7.174 0 0 1-5.227 2.252 7.174 7.174 0 0 1-5.226-2.252z"/></g>
<text x="1238" y="830" font-family="Helvetica, Arial, sans-serif" font-size="11" font-weight="700" fill="#0F1689" text-anchor="end">Helm</text>
<rect x="1352" y="566" width="300" height="210" rx="14" ry="14" fill="#FFFFFF" stroke="#E3E9F0" stroke-width="1.6" opacity="1"/>
<rect x="1352" y="566" width="300" height="34" rx="14" ry="14" fill="#F0FBF3" stroke="none" stroke-width="2" opacity="1"/>
<rect x="1352" y="584" width="300" height="16" rx="0" ry="0" fill="#F0FBF3" stroke="none" stroke-width="2" opacity="1"/>
<text x="1368" y="589" font-family="Helvetica, Arial, sans-serif" font-size="12.5" font-weight="700" fill="#3F7A4E" text-anchor="start">namespace: database  (shared)</text>
<circle cx="1398" cy="646" r="23" fill="#ffffff" stroke="#E3E9F0" stroke-width="1.5"/>
<g transform="translate(1383.00,631.00) scale(1.2500)" fill="#47A248"><path d="M17.193 9.555c-1.264-5.58-4.252-7.414-4.573-8.115-.28-.394-.53-.954-.735-1.44-.036.495-.055.685-.523 1.184-.723.566-4.438 3.682-4.74 10.02-.282 5.912 4.27 9.435 4.888 9.884l.07.05A73.49 73.49 0 0111.91 24h.481c.114-1.032.284-2.056.51-3.07.417-.296.604-.463.85-.693a11.342 11.342 0 003.639-8.464c.01-.814-.103-1.662-.197-2.218zm-5.336 8.195s0-8.291.275-8.29c.213 0 .49 10.695.49 10.695-.381-.045-.765-1.76-.765-2.405z"/></g>
<text x="1432" y="634" font-family="Helvetica, Arial, sans-serif" font-size="17" font-weight="700" fill="#1B2733" text-anchor="start">MongoDB</text>
<text x="1432" y="653" font-family="Helvetica, Arial, sans-serif" font-size="12" font-weight="400" fill="#5B6B7B" text-anchor="start">StatefulSet · mongo-0</text>
<text x="1432" y="672" font-family="Helvetica, Arial, sans-serif" font-size="11.5" font-weight="400" fill="#8A97A6" text-anchor="start">one DB for all 3 setups</text>
<circle cx="1352" cy="566" r="17" fill="#2563EB" stroke="#ffffff" stroke-width="2.5"/>
<circle cx="1352" cy="566" r="17" fill="none" stroke="#1E3A8A" stroke-width="1" opacity="0.4"/>
<text x="1352" y="571.5" font-family="Helvetica, Arial, sans-serif" font-size="17" font-weight="700" fill="#ffffff" text-anchor="middle">6</text>
<rect x="1378.0" y="708.0" width="40" height="40" rx="7" fill="#7AA116"/>
<ellipse cx="1398" cy="720" rx="12" ry="4.5" fill="none" stroke="white" stroke-width="2.4"/>
<path d="M 1386 720 V 736 A 12 4.5 0 0 0 1410 736 V 720" fill="none" stroke="white" stroke-width="2.4"/>
<text x="1430" y="718" font-family="Helvetica, Arial, sans-serif" font-size="13.5" font-weight="700" fill="#1B2733" text-anchor="start">Amazon EBS</text>
<text x="1430" y="735" font-family="Helvetica, Arial, sans-serif" font-size="11.5" font-weight="400" fill="#7A8AA0" text-anchor="start">gp3 · PVC (Retain)</text>
<circle cx="1374" cy="708" r="17" fill="#2563EB" stroke="#ffffff" stroke-width="2.5"/>
<circle cx="1374" cy="708" r="17" fill="none" stroke="#1E3A8A" stroke-width="1" opacity="0.4"/>
<text x="1374" y="713.5" font-family="Helvetica, Arial, sans-serif" font-size="17" font-weight="700" fill="#ffffff" text-anchor="middle">2</text>
<line x1="1442" y1="696" x2="1442" y2="706" stroke="#7AA116" stroke-width="2.2" marker-end="url(#arrowDark)" stroke-linecap="round"/>
<rect x="60" y="634" width="150" height="128" rx="14" ry="14" fill="#FFFFFF" stroke="#E3E9F0" stroke-width="1.6" opacity="1"/>
<rect x="112" y="664" width="46" height="34" rx="4" fill="none" stroke="#33404F" stroke-width="2.4"/>
<line x1="112" y1="674" x2="158" y2="674" stroke="#33404F" stroke-width="2.4"/>
<circle cx="118" cy="669" r="1.6" fill="#33404F"/>
<text x="135" y="722" font-family="Helvetica, Arial, sans-serif" font-size="13" font-weight="600" fill="#33404F" text-anchor="middle">User</text>
<text x="135" y="739" font-family="Helvetica, Arial, sans-serif" font-size="13" font-weight="600" fill="#33404F" text-anchor="middle">browser (HTTPS)</text>
<circle cx="60" cy="634" r="17" fill="#2563EB" stroke="#ffffff" stroke-width="2.5"/>
<circle cx="60" cy="634" r="17" fill="none" stroke="#1E3A8A" stroke-width="1" opacity="0.4"/>
<text x="60" y="639.5" font-family="Helvetica, Arial, sans-serif" font-size="17" font-weight="700" fill="#ffffff" text-anchor="middle">12</text>
<rect x="248" y="646" width="150" height="104" rx="14" ry="14" fill="#FFFFFF" stroke="#E3E9F0" stroke-width="1.6" opacity="1"/>
<rect x="268.0" y="666.0" width="40" height="40" rx="7" fill="#8C4FFF"/>
<circle cx="288" cy="686" r="12" fill="none" stroke="white" stroke-width="2.4"/>
<ellipse cx="288" cy="686" rx="5" ry="12" fill="none" stroke="white" stroke-width="2.4"/>
<line x1="276" y1="686" x2="300" y2="686" stroke="white" stroke-width="2.4"/>
<text x="318" y="680" font-family="Helvetica, Arial, sans-serif" font-size="14" font-weight="700" fill="#1B2733" text-anchor="start">Route 53</text>
<text x="318" y="697" font-family="Helvetica, Arial, sans-serif" font-size="12" font-weight="400" fill="#7A8AA0" text-anchor="start">DNS</text>
<text x="323" y="728" font-family="Helvetica, Arial, sans-serif" font-size="10" font-weight="middle" fill="#7A8AA0" text-anchor="14">ingress.hobbyez.com</text>
<text x="323" y="745" font-family="Helvetica, Arial, sans-serif" font-size="10" font-weight="middle" fill="#7A8AA0" text-anchor="14">ingress.backend.ho…</text>
<circle cx="248" cy="646" r="17" fill="#2563EB" stroke="#ffffff" stroke-width="2.5"/>
<circle cx="248" cy="646" r="17" fill="none" stroke="#1E3A8A" stroke-width="1" opacity="0.4"/>
<text x="248" y="651.5" font-family="Helvetica, Arial, sans-serif" font-size="17" font-weight="700" fill="#ffffff" text-anchor="middle">11</text>
<rect x="436" y="646" width="150" height="104" rx="14" ry="14" fill="#FFFFFF" stroke="#E3E9F0" stroke-width="1.6" opacity="1"/>
<rect x="456.0" y="666.0" width="40" height="40" rx="7" fill="#8C4FFF"/>
<circle cx="476" cy="677" r="3.4" fill="white"/>
<line x1="476" y1="677" x2="465" y2="695" stroke="white" stroke-width="2.4"/>
<circle cx="465" cy="696" r="3.2" fill="white"/>
<line x1="476" y1="677" x2="476" y2="695" stroke="white" stroke-width="2.4"/>
<circle cx="476" cy="696" r="3.2" fill="white"/>
<line x1="476" y1="677" x2="487" y2="695" stroke="white" stroke-width="2.4"/>
<circle cx="487" cy="696" r="3.2" fill="white"/>
<text x="506" y="680" font-family="Helvetica, Arial, sans-serif" font-size="14" font-weight="700" fill="#1B2733" text-anchor="start">AWS NLB</text>
<text x="506" y="697" font-family="Helvetica, Arial, sans-serif" font-size="12" font-weight="400" fill="#7A8AA0" text-anchor="start">layer 4</text>
<text x="511" y="728" font-family="Helvetica, Arial, sans-serif" font-size="10.5" font-weight="middle" fill="#7A8AA0" text-anchor="14">one NLB for</text>
<text x="511" y="745" font-family="Helvetica, Arial, sans-serif" font-size="10.5" font-weight="middle" fill="#7A8AA0" text-anchor="14">the whole cluster</text>
<circle cx="436" cy="646" r="17" fill="#2563EB" stroke="#ffffff" stroke-width="2.5"/>
<circle cx="436" cy="646" r="17" fill="none" stroke="#1E3A8A" stroke-width="1" opacity="0.4"/>
<text x="436" y="651.5" font-family="Helvetica, Arial, sans-serif" font-size="17" font-weight="700" fill="#ffffff" text-anchor="middle">3</text>
<line x1="210" y1="698" x2="246" y2="698" stroke="#334155" stroke-width="2.6" marker-end="url(#arrowDark)" stroke-linecap="round"/>
<line x1="398" y1="698" x2="434" y2="698" stroke="#334155" stroke-width="2.6" marker-end="url(#arrowDark)" stroke-linecap="round"/>
<text x="416" y="688" font-family="Helvetica, Arial, sans-serif" font-size="11" font-weight="400" fill="#7A8AA0" text-anchor="middle">:443</text>
<polyline points="586,698 614,698 614,690 660,690" fill="none" stroke="#334155" stroke-width="2.6" marker-end="url(#arrowDark)" stroke-linejoin="round" stroke-linecap="round"/>
<text x="612" y="672" font-family="Helvetica, Arial, sans-serif" font-size="11" font-weight="600" fill="#5B6B7B" text-anchor="middle">TCP :443</text>
<polyline points="898,648 952,648 952,560 984,560" fill="none" stroke="#334155" stroke-width="2.6" marker-end="url(#arrowDark)" stroke-linejoin="round" stroke-linecap="round"/>
<text x="1136" y="460" font-family="Helvetica, Arial, sans-serif" font-size="12" font-weight="700" fill="#4A6A85" text-anchor="middle">host: ingress.hobbyez.com</text>
<polyline points="898,732 952,732 952,775 984,775" fill="none" stroke="#334155" stroke-width="2.6" marker-end="url(#arrowDark)" stroke-linejoin="round" stroke-linecap="round"/>
<text x="1136" y="690" font-family="Helvetica, Arial, sans-serif" font-size="12" font-weight="700" fill="#3F7A4E" text-anchor="middle">host: ingress.backend.hobbyez.com</text>
<circle cx="936" cy="692" r="17" fill="#2563EB" stroke="#ffffff" stroke-width="2.5"/>
<circle cx="936" cy="692" r="17" fill="none" stroke="#1E3A8A" stroke-width="1" opacity="0.4"/>
<text x="936" y="697.5" font-family="Helvetica, Arial, sans-serif" font-size="17" font-weight="700" fill="#ffffff" text-anchor="middle">10</text>
<line x1="1288" y1="756" x2="1350" y2="756" stroke="#334155" stroke-width="2.6" marker-end="url(#arrowDark)" stroke-linecap="round"/>
<text x="1319" y="744" font-family="Helvetica, Arial, sans-serif" font-size="10.5" font-weight="600" fill="#3F7A4E" text-anchor="middle">mongodb://</text>
<line x1="780" y1="584" x2="780" y2="604" stroke="#7A8AA0" stroke-width="2" marker-end="url(#arrowThin)" stroke-linecap="round"/>
<text x="792" y="600" font-family="Helvetica, Arial, sans-serif" font-size="10.5" font-weight="400" fill="#7A8AA0" text-anchor="start">cert</text>
<polyline points="662,512 330,512 330,644" fill="none" stroke="#B0A8C9" stroke-width="1.8" marker-end="url(#arrowThin)" stroke-dasharray="7,6" stroke-linejoin="round" stroke-linecap="round"/>
<text x="430" y="505" font-family="Helvetica, Arial, sans-serif" font-size="10.5" font-weight="600" fill="#8A7FB0" text-anchor="middle">DNS-01 TXT challenge</text>
<polyline points="856,300 856,346 1310,346" fill="none" stroke="#E8791A" stroke-width="2.6" stroke-dasharray="7,6" stroke-linejoin="round" stroke-linecap="round"/>
<polyline points="1310,346 1310,815 1290,815" fill="none" stroke="#E8791A" stroke-width="2.6" marker-end="url(#arrowCI)" stroke-dasharray="7,6" stroke-linejoin="round" stroke-linecap="round"/>
<polyline points="1310,560 1290,560" fill="none" stroke="#E8791A" stroke-width="2.6" marker-end="url(#arrowCI)" stroke-dasharray="7,6" stroke-linejoin="round" stroke-linecap="round"/>
<text x="1083" y="336" font-family="Helvetica, Arial, sans-serif" font-size="11.5" font-weight="700" fill="#B4791F" text-anchor="middle">deploy  →  frontend (YAML)  ·  backend (Helm)  ·  deployer kubeconfig</text>
<circle cx="1310" cy="500" r="17" fill="#2563EB" stroke="#ffffff" stroke-width="2.5"/>
<circle cx="1310" cy="500" r="17" fill="none" stroke="#1E3A8A" stroke-width="1" opacity="0.4"/>
<text x="1310" y="505.5" font-family="Helvetica, Arial, sans-serif" font-size="17" font-weight="700" fill="#ffffff" text-anchor="middle">9</text>
<text x="48" y="940" font-family="Helvetica, Arial, sans-serif" font-size="13" font-weight="700" fill="#8A97A6" text-anchor="start">Install order</text>
<circle cx="60.0" cy="954" r="11" fill="#2563EB"/>
<text x="60.0" y="958" font-family="Helvetica, Arial, sans-serif" font-size="12" font-weight="700" fill="#ffffff" text-anchor="middle">1</text>
<text x="78.0" y="958" font-family="Helvetica, Arial, sans-serif" font-size="12.5" font-weight="600" fill="#33404F" text-anchor="start">RBAC/bootstrap</text>
<circle cx="337.3333333333333" cy="954" r="11" fill="#2563EB"/>
<text x="337.3333333333333" y="958" font-family="Helvetica, Arial, sans-serif" font-size="12" font-weight="700" fill="#ffffff" text-anchor="middle">2</text>
<text x="355.3333333333333" y="958" font-family="Helvetica, Arial, sans-serif" font-size="12.5" font-weight="600" fill="#33404F" text-anchor="start">EBS CSI</text>
<circle cx="614.6666666666666" cy="954" r="11" fill="#2563EB"/>
<text x="614.6666666666666" y="958" font-family="Helvetica, Arial, sans-serif" font-size="12" font-weight="700" fill="#ffffff" text-anchor="middle">3</text>
<text x="632.6666666666666" y="958" font-family="Helvetica, Arial, sans-serif" font-size="12.5" font-weight="600" fill="#33404F" text-anchor="start">LB controller</text>
<circle cx="892.0" cy="954" r="11" fill="#2563EB"/>
<text x="892.0" y="958" font-family="Helvetica, Arial, sans-serif" font-size="12" font-weight="700" fill="#ffffff" text-anchor="middle">4</text>
<text x="910.0" y="958" font-family="Helvetica, Arial, sans-serif" font-size="12.5" font-weight="600" fill="#33404F" text-anchor="start">ECR</text>
<circle cx="1169.3333333333333" cy="954" r="11" fill="#2563EB"/>
<text x="1169.3333333333333" y="958" font-family="Helvetica, Arial, sans-serif" font-size="12" font-weight="700" fill="#ffffff" text-anchor="middle">5</text>
<text x="1187.3333333333333" y="958" font-family="Helvetica, Arial, sans-serif" font-size="12.5" font-weight="600" fill="#33404F" text-anchor="start">cert-manager</text>
<circle cx="1446.6666666666665" cy="954" r="11" fill="#2563EB"/>
<text x="1446.6666666666665" y="958" font-family="Helvetica, Arial, sans-serif" font-size="12" font-weight="700" fill="#ffffff" text-anchor="middle">6</text>
<text x="1464.6666666666665" y="958" font-family="Helvetica, Arial, sans-serif" font-size="12.5" font-weight="600" fill="#33404F" text-anchor="start">Database</text>
<circle cx="60.0" cy="984" r="11" fill="#2563EB"/>
<text x="60.0" y="988" font-family="Helvetica, Arial, sans-serif" font-size="12" font-weight="700" fill="#ffffff" text-anchor="middle">7</text>
<text x="78.0" y="988" font-family="Helvetica, Arial, sans-serif" font-size="12.5" font-weight="600" fill="#33404F" text-anchor="start">ingress-nginx</text>
<circle cx="337.3333333333333" cy="984" r="11" fill="#2563EB"/>
<text x="337.3333333333333" y="988" font-family="Helvetica, Arial, sans-serif" font-size="12" font-weight="700" fill="#ffffff" text-anchor="middle">8</text>
<text x="355.3333333333333" y="988" font-family="Helvetica, Arial, sans-serif" font-size="12.5" font-weight="600" fill="#33404F" text-anchor="start">CI build</text>
<circle cx="614.6666666666666" cy="984" r="11" fill="#2563EB"/>
<text x="614.6666666666666" y="988" font-family="Helvetica, Arial, sans-serif" font-size="12" font-weight="700" fill="#ffffff" text-anchor="middle">9</text>
<text x="632.6666666666666" y="988" font-family="Helvetica, Arial, sans-serif" font-size="12.5" font-weight="600" fill="#33404F" text-anchor="start">Deploy apps</text>
<circle cx="892.0" cy="984" r="11" fill="#2563EB"/>
<text x="892.0" y="988" font-family="Helvetica, Arial, sans-serif" font-size="12" font-weight="700" fill="#ffffff" text-anchor="middle">10</text>
<text x="910.0" y="988" font-family="Helvetica, Arial, sans-serif" font-size="12.5" font-weight="600" fill="#33404F" text-anchor="start">Ingress rules</text>
<circle cx="1169.3333333333333" cy="984" r="11" fill="#2563EB"/>
<text x="1169.3333333333333" y="988" font-family="Helvetica, Arial, sans-serif" font-size="12" font-weight="700" fill="#ffffff" text-anchor="middle">11</text>
<text x="1187.3333333333333" y="988" font-family="Helvetica, Arial, sans-serif" font-size="12.5" font-weight="600" fill="#33404F" text-anchor="start">DNS</text>
<circle cx="1446.6666666666665" cy="984" r="11" fill="#2563EB"/>
<text x="1446.6666666666665" y="988" font-family="Helvetica, Arial, sans-serif" font-size="12" font-weight="700" fill="#ffffff" text-anchor="middle">12</text>
<text x="1464.6666666666665" y="988" font-family="Helvetica, Arial, sans-serif" font-size="12.5" font-weight="600" fill="#33404F" text-anchor="start">Verify</text>
<text x="1712" y="940" font-family="Helvetica, Arial, sans-serif" font-size="12.5" font-weight="600" fill="#8A97A6" text-anchor="end">full setup — run  1 → 12  every batch</text>
</svg>