<svg xmlns="http://www.w3.org/2000/svg" width="1560" height="940" viewBox="0 0 1560 940">
<defs>
<marker id="ar" viewBox="0 0 10 10" refX="8.5" refY="5" markerWidth="7" markerHeight="7" orient="auto-start-reverse"><path d="M 0 0 L 10 5 L 0 10 z" fill="#334155"/></marker>
<marker id="arB" viewBox="0 0 10 10" refX="8.5" refY="5" markerWidth="7" markerHeight="7" orient="auto-start-reverse"><path d="M 0 0 L 10 5 L 0 10 z" fill="#326CE5"/></marker>
<marker id="arThin" viewBox="0 0 10 10" refX="8.5" refY="5" markerWidth="7" markerHeight="7" orient="auto-start-reverse"><path d="M 0 0 L 10 5 L 0 10 z" fill="#8A97A6"/></marker>
<marker id="arG" viewBox="0 0 10 10" refX="8.5" refY="5" markerWidth="7" markerHeight="7" orient="auto-start-reverse"><path d="M 0 0 L 10 5 L 0 10 z" fill="#0E9F6E"/></marker>
</defs>
<rect x="0" y="0" width="1560" height="940" rx="0" ry="0" fill="#F4F7FB" stroke="none" stroke-width="2" opacity="1"/>
<text x="48" y="58" font-family="Helvetica, Arial, sans-serif" font-size="30" font-weight="700" fill="#0F1E2E" text-anchor="start">Istio Service Mesh — Architecture</text>
<text x="48" y="90" font-family="Helvetica, Arial, sans-serif" font-size="16" font-weight="400" fill="#5B6B7B" text-anchor="start">Control plane (istiod) + a per-pod Envoy sidecar — mTLS, traffic mgmt &amp; telemetry for every pod</text>
<rect x="548" y="138" width="464" height="96" rx="14" ry="14" fill="#EAF0FB" stroke="#466BB0" stroke-width="1.8" opacity="1"/>
<circle cx="588" cy="186" r="18" fill="#fff" stroke="#E3E9F0" stroke-width="1.5"/>
<g transform="translate(576.00,174.00) scale(1.0000)" fill="#466BB0"><path d="M4 21 20 21 10 24zM4 20 10 19 10 8zM11 19 20 20 11 0z"/></g>
<text x="618" y="178" font-family="Helvetica, Arial, sans-serif" font-size="17" font-weight="700" fill="#1B2733" text-anchor="start">istiod</text>
<text x="618" y="197" font-family="Helvetica, Arial, sans-serif" font-size="12" font-weight="400" fill="#5B6B7B" text-anchor="start">control plane</text>
<text x="838" y="180" font-family="Helvetica, Arial, sans-serif" font-size="11.5" font-weight="middle" fill="#5B6B7B" text-anchor="16">config · CA / certificates · service discovery</text>
<text x="838" y="197" font-family="Helvetica, Arial, sans-serif" font-size="11.5" font-weight="middle" fill="#5B6B7B" text-anchor="16">pushes to every Envoy over xDS (+ issues mTLS certs)</text>
<rect x="60" y="300" width="1440" height="470" rx="18" ry="18" fill="#F1F4FB" stroke="#466BB0" stroke-width="2" opacity="1"/>
<rect x="60" y="300" width="1440" height="40" rx="18" ry="18" fill="#466BB0" stroke="none" stroke-width="2" opacity="1"/>
<rect x="60" y="320" width="1440" height="20" rx="0" ry="0" fill="#466BB0" stroke="none" stroke-width="2" opacity="1"/>
<circle cx="86" cy="320" r="13" fill="#fff" stroke="#E3E9F0" stroke-width="1.5"/>
<g transform="translate(77.00,311.00) scale(0.7500)" fill="#466BB0"><path d="M4 21 20 21 10 24zM4 20 10 19 10 8zM11 19 20 20 11 0z"/></g>
<text x="106" y="326" font-family="Helvetica, Arial, sans-serif" font-size="15" font-weight="700" fill="#fff" text-anchor="start">Kubernetes cluster  ·  mesh (sidecar injection on)</text>
<circle cx="120" cy="460.2" r="8.399999999999999" fill="none" stroke="#33404F" stroke-width="3.08"/>
<path d="M 104.6 485.4 a 15.399999999999999 15.399999999999999 0 0 1 30.799999999999997 0" fill="none" stroke="#33404F" stroke-width="3.08"/>
<text x="120" y="512" font-family="Helvetica, Arial, sans-serif" font-size="13" font-weight="600" fill="#33404F" text-anchor="middle">User</text>
<line x1="168" y1="470" x2="214" y2="470" stroke="#334155" stroke-width="2.6" marker-end="url(#ar)" stroke-linecap="round"/>
<rect x="216" y="422" width="132" height="96" rx="12" ry="12" fill="#fff" stroke="#E3E9F0" stroke-width="1.6" opacity="1"/>
<circle cx="282" cy="446" r="3.4" fill="#8C4FFF"/>
<line x1="282" y1="446" x2="271" y2="463" stroke="#8C4FFF" stroke-width="2.4"/>
<circle cx="271" cy="464" r="3.2" fill="#8C4FFF"/>
<line x1="282" y1="446" x2="282" y2="463" stroke="#8C4FFF" stroke-width="2.4"/>
<circle cx="282" cy="464" r="3.2" fill="#8C4FFF"/>
<line x1="282" y1="446" x2="293" y2="463" stroke="#8C4FFF" stroke-width="2.4"/>
<circle cx="293" cy="464" r="3.2" fill="#8C4FFF"/>
<text x="282" y="488" font-family="Helvetica, Arial, sans-serif" font-size="12" font-weight="700" fill="#1B2733" text-anchor="middle">AWS NLB</text>
<path d="M 245.66 502.76 v-3.1 a4.34 4.34 0 0 1 8.68 0 v3.1" fill="none" stroke="#8C4FFF" stroke-width="1.364"/>
<rect x="244.42" y="502.76" width="11.16" height="8.06" rx="1.55" fill="#8C4FFF"/>
<text x="264" y="508" font-family="Helvetica, Arial, sans-serif" font-size="10.5" font-weight="400" fill="#5B6B7B" text-anchor="start">ACM</text>
<line x1="348" y1="470" x2="404" y2="470" stroke="#334155" stroke-width="2.6" marker-end="url(#ar)" stroke-linecap="round"/>
<rect x="410" y="408" width="180" height="124" rx="12" ry="12" fill="#fff" stroke="#466BB0" stroke-width="2" opacity="1"/>
<circle cx="442" cy="444" r="16" fill="#fff" stroke="#E3E9F0" stroke-width="1.5"/>
<g transform="translate(431.00,433.00) scale(0.9167)" fill="#466BB0"><path d="M4 21 20 21 10 24zM4 20 10 19 10 8zM11 19 20 20 11 0z"/></g>
<text x="466" y="438" font-family="Helvetica, Arial, sans-serif" font-size="14" font-weight="700" fill="#1B2733" text-anchor="start">Istio ingress</text>
<text x="466" y="455" font-family="Helvetica, Arial, sans-serif" font-size="11" font-weight="400" fill="#5B6B7B" text-anchor="start">gateway (Envoy)</text>
<line x1="424" y1="474" x2="576" y2="474" stroke="#EDF1F6" stroke-width="1.5"/>
<text x="500.0" y="496" font-family="Helvetica, Arial, sans-serif" font-size="11" font-weight="middle" fill="#5B6B7B" text-anchor="15">Gateway +</text>
<text x="500.0" y="513" font-family="Helvetica, Arial, sans-serif" font-size="11" font-weight="middle" fill="#5B6B7B" text-anchor="15">VirtualService</text>
<rect x="720" y="362" width="246" height="96" rx="12" ry="12" fill="#fff" stroke="#D8E2EE" stroke-width="1.8" opacity="1"/>
<rect x="732" y="382" width="104" height="60" rx="8" ry="8" fill="#EEF4FF" stroke="#C9D6EA" stroke-width="1.3" opacity="1"/>
<text x="784" y="408" font-family="Helvetica, Arial, sans-serif" font-size="13" font-weight="700" fill="#1B2733" text-anchor="middle">app</text>
<text x="784" y="425" font-family="Helvetica, Arial, sans-serif" font-size="10" font-weight="400" fill="#5B6B7B" text-anchor="middle">frontend</text>
<rect x="848" y="382" width="104" height="60" rx="8" ry="8" fill="#FBF0F7" stroke="#AC6199" stroke-width="1.3" opacity="1"/>
<circle cx="872" cy="406" r="11" fill="#fff" stroke="#E3E9F0" stroke-width="1.5"/>
<g transform="translate(864.50,398.50) scale(0.6250)" fill="#AC6199"><path d="m23.351 7.593-7.068-4.379a1.034 1.034 0 0 0-.84-.117c-.02.01-.052.021-.074.032L8.471 6.105a.695.695 0 0 0-.435.68l.17 7.355c.01.298.191.595.478.765l7.068 4.38c.255.159.574.201.84.116.02-.01.053-.021.074-.032l6.898-2.976a.705.705 0 0 0 .436-.68l-.17-7.355c-.011-.297-.192-.584-.479-.765m-7.185 10.044-6.143-3.805-.149-6.388 5.995-2.583 6.143 3.805.149 6.388zm.011-6.027a.832.832 0 0 0-.414-.67l-5.06-3.135-.159.064.032 1.52 4.007 2.487.095 4.06 1.53.946.086-.032zm-6.058 7.132L5.41 15.83l-.116-4.89 2.146-.924-.042-1.69-3.327 1.435a.611.611 0 0 0-.382.595l.138 5.74c0 .265.16.52.414.67l5.516 3.422c.224.138.5.18.734.106a.15.15 0 0 1 .064-.021l3.252-1.403-1.616-1zm-2.615-6.1-1.52-.947.032 1.446 1.52.946zm2.19 5.059-.032-1.414-1.329-.83c-.021-.01-.042-.031-.053-.042l.032 1.425zm-4.751 1.902-3.476-2.158-.085-3.613 1.7-.734-.031-1.445-2.72 1.17a.527.527 0 0 0-.33.51l.106 4.336c0 .223.138.446.35.574l4.167 2.582a.822.822 0 0 0 .627.096c.021-.01.043-.01.064-.021l2.561-1.106-1.392-.86Z"/></g>
<text x="898" y="405" font-family="Helvetica, Arial, sans-serif" font-size="11" font-weight="700" fill="#1B2733" text-anchor="middle">Envoy</text>
<text x="898" y="422" font-family="Helvetica, Arial, sans-serif" font-size="9.5" font-weight="400" fill="#5B6B7B" text-anchor="middle">sidecar</text>
<rect x="720" y="510" width="246" height="96" rx="12" ry="12" fill="#fff" stroke="#D8E2EE" stroke-width="1.8" opacity="1"/>
<rect x="732" y="530" width="104" height="60" rx="8" ry="8" fill="#EEF4FF" stroke="#C9D6EA" stroke-width="1.3" opacity="1"/>
<text x="784" y="556" font-family="Helvetica, Arial, sans-serif" font-size="13" font-weight="700" fill="#1B2733" text-anchor="middle">app</text>
<text x="784" y="573" font-family="Helvetica, Arial, sans-serif" font-size="10" font-weight="400" fill="#5B6B7B" text-anchor="middle">backend</text>
<rect x="848" y="530" width="104" height="60" rx="8" ry="8" fill="#FBF0F7" stroke="#AC6199" stroke-width="1.3" opacity="1"/>
<circle cx="872" cy="554" r="11" fill="#fff" stroke="#E3E9F0" stroke-width="1.5"/>
<g transform="translate(864.50,546.50) scale(0.6250)" fill="#AC6199"><path d="m23.351 7.593-7.068-4.379a1.034 1.034 0 0 0-.84-.117c-.02.01-.052.021-.074.032L8.471 6.105a.695.695 0 0 0-.435.68l.17 7.355c.01.298.191.595.478.765l7.068 4.38c.255.159.574.201.84.116.02-.01.053-.021.074-.032l6.898-2.976a.705.705 0 0 0 .436-.68l-.17-7.355c-.011-.297-.192-.584-.479-.765m-7.185 10.044-6.143-3.805-.149-6.388 5.995-2.583 6.143 3.805.149 6.388zm.011-6.027a.832.832 0 0 0-.414-.67l-5.06-3.135-.159.064.032 1.52 4.007 2.487.095 4.06 1.53.946.086-.032zm-6.058 7.132L5.41 15.83l-.116-4.89 2.146-.924-.042-1.69-3.327 1.435a.611.611 0 0 0-.382.595l.138 5.74c0 .265.16.52.414.67l5.516 3.422c.224.138.5.18.734.106a.15.15 0 0 1 .064-.021l3.252-1.403-1.616-1zm-2.615-6.1-1.52-.947.032 1.446 1.52.946zm2.19 5.059-.032-1.414-1.329-.83c-.021-.01-.042-.031-.053-.042l.032 1.425zm-4.751 1.902-3.476-2.158-.085-3.613 1.7-.734-.031-1.445-2.72 1.17a.527.527 0 0 0-.33.51l.106 4.336c0 .223.138.446.35.574l4.167 2.582a.822.822 0 0 0 .627.096c.021-.01.043-.01.064-.021l2.561-1.106-1.392-.86Z"/></g>
<text x="898" y="553" font-family="Helvetica, Arial, sans-serif" font-size="11" font-weight="700" fill="#1B2733" text-anchor="middle">Envoy</text>
<text x="898" y="570" font-family="Helvetica, Arial, sans-serif" font-size="9.5" font-weight="400" fill="#5B6B7B" text-anchor="middle">sidecar</text>
<polyline points="590,470 680,470 680,410 718,410" fill="none" stroke="#334155" stroke-width="2.6" marker-end="url(#ar)" stroke-linejoin="round" stroke-linecap="round"/>
<polyline points="843,458 843,510" fill="none" stroke="#0E9F6E" stroke-width="2.4" marker-end="url(#ar)" stroke-linejoin="round" stroke-linecap="round"/>
<path d="M 838.1 482.6 v-3.5 a4.8999999999999995 4.8999999999999995 0 0 1 9.799999999999999 0 v3.5" fill="none" stroke="#0E9F6E" stroke-width="1.54"/>
<rect x="836.7" y="482.6" width="12.6" height="9.1" rx="1.75" fill="#0E9F6E"/>
<text x="860" y="488.0" font-family="Helvetica, Arial, sans-serif" font-size="10.5" font-weight="700" fill="#0E9F6E" text-anchor="start">mTLS</text>
<rect x="1040" y="518" width="220" height="80" rx="12" ry="12" fill="#F0FBF3" stroke="#B7E3C6" stroke-width="1.6" opacity="1"/>
<text x="1150" y="548" font-family="Helvetica, Arial, sans-serif" font-size="13" font-weight="700" fill="#1B2733" text-anchor="middle">MongoDB</text>
<text x="1150" y="568" font-family="Helvetica, Arial, sans-serif" font-size="10.5" font-weight="400" fill="#5B6B7B" text-anchor="middle">(+ sidecar)</text>
<polyline points="966,558 1038,558" fill="none" stroke="#0E9F6E" stroke-width="2.4" marker-end="url(#ar)" stroke-linejoin="round" stroke-linecap="round"/>
<path d="M 995.8 548.8 v-3.0 a4.2 4.2 0 0 1 8.4 0 v3.0" fill="none" stroke="#0E9F6E" stroke-width="1.32"/>
<rect x="994.6" y="548.8" width="10.799999999999999" height="7.8" rx="1.5" fill="#0E9F6E"/>
<polyline points="780,234 780,268 500.0,268 500.0,408" fill="none" stroke="#466BB0" stroke-width="1.6" marker-end="url(#arB)" stroke-dasharray="6,6" stroke-linejoin="round" stroke-linecap="round"/>
<polyline points="780,234 780,268 900,268 900,362" fill="none" stroke="#466BB0" stroke-width="1.6" marker-end="url(#arB)" stroke-dasharray="6,6" stroke-linejoin="round" stroke-linecap="round"/>
<polyline points="780,234 780,268 900,268 900,510" fill="none" stroke="#466BB0" stroke-width="1.6" marker-end="url(#arB)" stroke-dasharray="6,6" stroke-linejoin="round" stroke-linecap="round"/>
<text x="1160" y="262" font-family="Helvetica, Arial, sans-serif" font-size="11" font-weight="600" fill="#466BB0" text-anchor="middle">xDS config + mTLS certs → every Envoy</text>
<text x="780.0" y="804" font-family="Helvetica, Arial, sans-serif" font-size="13" font-weight="600" fill="#5B6B7B" text-anchor="middle">Every pod gets an Envoy sidecar → mutual TLS, retries/timeouts, canary &amp; full telemetry with zero app code.</text>
</svg>